<svg xmlns="http://www.w3.org/2000/svg" xmlns:xlink="http://www.w3.org/1999/xlink" width="661.485" height="488.686" viewBox="0 0 661.485 488.686">
  <defs>
    <linearGradient id="linear-gradient" x1="0.5" y1="1" x2="0.5" gradientUnits="objectBoundingBox">
      <stop offset="0" stop-color="gray" stop-opacity="0.251"/>
      <stop offset="0.54" stop-color="gray" stop-opacity="0.122"/>
      <stop offset="1" stop-color="gray" stop-opacity="0.102"/>
    </linearGradient>
    <linearGradient id="linear-gradient-2" x1="0.5" y1="1" x2="0.5" y2="0" xlink:href="#linear-gradient"/>
  </defs>
  <g id="Groupe_76" data-name="Groupe 76" transform="translate(-0.005 -0.003)">
    <path id="Tracé_319" data-name="Tracé 319" d="M91.459,356.76h57.473V435.1H95.662c-.136.81-.272,1.614-.425,2.424h53.7V500.7a.809.809,0,0,1-.266-.1q-2.265-.9-4.531-1.909c-.323-.147-.64-.3-.968-.442q-2.265-1.071-4.531-2.265c-.527-.278-1.053-.566-1.569-.861a94.26,94.26,0,0,1-22.6-17.591c-.2-.187-.379-.391-.566-.566-.917-1-1.818-2-2.69-3.036-.328-.379-.646-.765-.968-1.133-1.031-1.257-2.028-2.56-2.99-3.868-.147-.2-.283-.391-.425-.566a83.663,83.663,0,0,1-9.741-17.613c-.079-.187-.153-.391-.227-.566-.782-1.982-1.49-3.993-2.1-6.043-.261-.855-.515-1.7-.731-2.588-.079-.255-.142-.515-.21-.77-3.183-12.545-3.551-25.582-3.551-38.557V397.69q.068-7.946.187-15.875.045-2.039.085-4.095.119-5.2.34-10.432c.034-.963.079-1.931.13-2.888q.034-.833.085-1.665Q91.25,359.728,91.459,356.76Z" transform="translate(-47.966 -165.219)" fill="#1078ad" opacity="0.1"/>
    <path id="Tracé_320" data-name="Tracé 320" d="M169.709,172.237H138.18a240,240,0,0,1,16.77-23.073c4.689-5.754,9.628-11.361,14.759-16.764Z" transform="translate(-68.742 -67.925)" fill="#1078ad" opacity="0.1"/>
    <path id="Tracé_321" data-name="Tracé 321" d="M149.982,207v82.393H92.69c0-.238.034-.481.057-.719.051-.651.1-1.3.159-1.948.057-.759.13-1.518.2-2.265s.147-1.654.238-2.475.164-1.654.255-2.475.181-1.642.283-2.458.193-1.642.306-2.458c.085-.674.17-1.354.266-2.033.13-.957.266-1.914.408-2.866a2.724,2.724,0,0,1,.068-.43,197.624,197.624,0,0,1,4.214-20.683,153.148,153.148,0,0,1,7.108-20.955A157.375,157.375,0,0,1,116.947,207Z" transform="translate(-49.016 -100.275)" fill="#1078ad" opacity="0.1"/>
    <path id="Tracé_322" data-name="Tracé 322" d="M218.09,210.1v78.343H340.852V210.1Zm0,80.767v67.283c.7.142,1.393.283,2.09.4.934.181,1.875.345,2.832.487l.566.079c.374.062.753.113,1.133.159.946.136,1.892.238,2.832.328.442.045.9.079,1.348.119l1.093.079h0c.595.045,1.184.079,1.773.1.362,0,.725.028,1.093.04s.566,0,.861,0h3.149c.487,0,.974,0,1.456-.045h.028a8.675,8.675,0,0,0,1.014-.04,2.506,2.506,0,0,0,.289,0,6.825,6.825,0,0,0,.838-.034,1.173,1.173,0,0,1,.193,0c.629-.04,1.263-.091,1.9-.147s1.246-.125,1.886-.193l1.286-.159a112.784,112.784,0,0,0,15.546-3.307c11.457-3.194,22.654-7.663,34.106-10.931,14.793-4.219,31.149-6.3,45.444-1.161V290.869Zm122.762-168V18.573a157.745,157.745,0,0,0-39.882,4.672c-31.087,7.81-59,24.75-82.88,46.384v53.237h6.179v2.418H218.09v82.393H340.852V125.285H249.545v-2.424ZM498.57,87.639a50.821,50.821,0,0,1-22.258-6.468c-13.219-7.187-23.787-18.3-35.59-27.666C416.2,33.983,385.787,22.2,354.586,19.275v103.6H529.821l.436-.459Zm15.965-2.832,16.928,18.582V79.92c-5.7.719-10.659,2.39-16.928,4.865Zm16.928,290.051v-83.99h-36.1c-.091-.357-.193-.719-.306-1.082.108.362.2.725.3,1.082H354.586V351.6c1.337.991,2.656,2.039,3.964,3.092h0q2.118,1.733,4.208,3.506l1.4,1.161c.674.566,1.359,1.133,2.039,1.671q2.045,1.648,4.117,3.262,1.036.816,2.084,1.6a284.347,284.347,0,0,0,34.91,22.83c2.73,1.523,5.488,2.99,8.263,4.423q2.769,1.427,5.579,2.8,4.214,2.056,8.5,3.964h0A311.83,311.83,0,0,0,512.338,424q9.5,1.4,19.092,2.209V374.847H532ZM354.586,125.285v82.393H531.464V125.285Zm0,84.805v78.355H531.464V210.1ZM545.192,79.807v26.222l21.6-23.713Q556.055,80.543,545.192,79.807Zm0,130.295v78.343H717.221V210.1Zm171.423,170.97.606-90.2H545.192V427.116a309.971,309.971,0,0,0,33.245-.4h.193q7.929-.51,15.784-1.45h.119A290.251,290.251,0,0,0,675.651,403.6m74.758-180.626q-.98-2.265-2.011-4.531c-1.28-2.832-2.628-5.584-4.021-8.331H730.955v78.338h33.93C764.857,266.255,759.239,243.6,750.409,222.969Zm-19.454,67.9v77.59A111.026,111.026,0,0,0,754.4,336.834c6.994-14.436,10.194-30.056,10.46-45.971Zm0-103.6V207.66H743.12a221.5,221.5,0,0,0-12.165-20.389ZM614.287,95.183c-.895-.345-1.8-.691-2.7-1.019a244.754,244.754,0,0,0-29.054-8.733l-33.064,36.28h0l-.646.7.425.459H666.929a251.407,251.407,0,0,0-52.642-27.683Zm56.1,30.1H547.6l-2.413,2.2v80.19H717.221V168.826a244.94,244.94,0,0,0-46.837-43.541Z" transform="translate(-103.395 -18.56)" fill="#1078ad" opacity="0.1"/>
    <path id="Tracé_323" data-name="Tracé 323" d="M149.982,280.39v40.828H92.69c0-.238.034-.481.057-.719.051-.651.1-1.3.159-1.948.057-.759.13-1.518.2-2.265s.147-1.654.238-2.475.164-1.654.255-2.475.181-1.642.283-2.458.193-1.642.306-2.458c.085-.674.17-1.354.266-2.033.13-.957.266-1.914.408-2.866a2.724,2.724,0,0,1,.068-.43,197.617,197.617,0,0,1,4.214-20.683Z" transform="translate(-49.016 -132.101)" fill="#1078ad" opacity="0.1"/>
    <path id="Tracé_324" data-name="Tracé 324" d="M91.459,356.76h57.473V435.1H95.662c-.136.81-.272,1.614-.425,2.424h53.7V500.7a.809.809,0,0,1-.266-.1q-2.265-.9-4.531-1.909c-.323-.147-.64-.3-.968-.442q-2.265-1.071-4.531-2.265c-.527-.278-1.053-.566-1.569-.861a94.26,94.26,0,0,1-22.6-17.591c-.2-.187-.379-.391-.566-.566-.917-1-1.818-2-2.69-3.036-.328-.379-.646-.765-.968-1.133-1.031-1.257-2.028-2.56-2.99-3.868-.147-.2-.283-.391-.425-.566a83.663,83.663,0,0,1-9.741-17.613c-.079-.187-.153-.391-.227-.566-.782-1.982-1.49-3.993-2.1-6.043-.261-.855-.515-1.7-.731-2.588-.079-.255-.142-.515-.21-.77-3.183-12.545-3.551-25.582-3.551-38.557V397.69q.068-7.946.187-15.875.045-2.039.085-4.095.119-5.2.34-10.432c.034-.963.079-1.931.13-2.888q.034-.833.085-1.665Q91.25,359.728,91.459,356.76Z" transform="translate(-47.966 -165.219)" fill="#1078ad" opacity="0.1"/>
    <path id="Tracé_325" data-name="Tracé 325" d="M245.348,190.98v70.59H202.13V190.98h6.162v-23.9h25.293v23.9Z" transform="translate(-87.441 -72.453)" fill="#1078ad" opacity="0.1"/>
    <rect id="Rectangle_76" data-name="Rectangle 76" width="43.213" height="78.343" transform="translate(114.689 191.536)" fill="#1078ad" opacity="0.1"/>
    <path id="Tracé_326" data-name="Tracé 326" d="M218.09,499.37H261.3V564.5a111.929,111.929,0,0,1-15.546,3.3c-.43.062-.855.113-1.286.159-.634.074-1.263.142-1.892.2l-1.9.153h-.193l-.838.045h-.289c-.34,0-.674.04-1.014.045h-.028c-.487,0-.968.034-1.456.045h-4.01a8.94,8.94,0,0,1-1.1-.045q-.872-.034-1.767-.1h0l-1.093-.079c-.453-.034-.906-.079-1.354-.125q-1.427-.125-2.832-.323l-1.133-.159-.566-.079c-.946-.142-1.886-.3-2.832-.481-.7-.125-1.393-.266-2.09-.414Z" transform="translate(-103.395 -227.061)" fill="#1078ad" opacity="0.1"/>
    <rect id="Rectangle_77" data-name="Rectangle 77" width="35.635" height="78.921" transform="translate(392.428 110.191)" fill="#1078ad" opacity="0.1"/>
    <path id="Tracé_327" data-name="Tracé 327" d="M620.027,338.19v78.349H443.15V382.745h94.213V402.68h47.024V338.19Z" transform="translate(-191.959 -146.654)" fill="#1078ad" opacity="0.1"/>
    <path id="Tracé_328" data-name="Tracé 328" d="M636.538,582.549a3.2,3.2,0,0,1-.566-.034v51.4q-9.577-.787-19.086-2.2a312.245,312.245,0,0,1-82.721-24.07q-11.4-5.142-22.337-11.208a285.383,285.383,0,0,1-34.9-22.83q-4.18-3.194-8.235-6.53c-1.875-1.552-3.732-3.138-5.624-4.672-1.3-1.059-2.622-2.107-3.964-3.1V498.542H599.872c-.1-.362-.193-.719-.294-1.082.108.363.21.719.3,1.082h36.1v83.967C636.164,582.515,636.351,582.532,636.538,582.549Z" transform="translate(-207.909 -226.233)" fill="#1078ad" opacity="0.1"/>
    <path id="Tracé_329" data-name="Tracé 329" d="M917.73,180.758H894.51v-7.215h10.4V152.05q1.354.5,2.7,1.019v20.474h10.115Z" transform="translate(-396.724 -76.446)" fill="#1078ad" opacity="0.1"/>
    <path id="Tracé_330" data-name="Tracé 330" d="M930.81,289.393H816.8a.071.071,0,0,0,.034,0H795.65V210.472h5.992v58.334h27.377V234.258h22.626V207h23.221v27.276H897.48v34.547h33.335Z" transform="translate(-353.853 -100.275)" fill="#1078ad" opacity="0.1"/>
    <path id="Tracé_331" data-name="Tracé 331" d="M795.65,356.76V435.1H930.815V356.76ZM967.487,527.317l.193-62.015H930.815V437.55H795.65V573.774a309.957,309.957,0,0,0,33.245-.4h.193q7.929-.51,15.784-1.45h.119a290.253,290.253,0,0,0,81.118-21.669" transform="translate(-353.853 -165.219)" fill="#1078ad" opacity="0.1"/>
    <path id="Tracé_332" data-name="Tracé 332" d="M1126.029,499.37h31.529c-.272,15.909-3.466,31.534-10.46,45.965a110.973,110.973,0,0,1-23.447,31.631V527.127h2.379Z" transform="translate(-496.09 -227.061)" fill="#1078ad" opacity="0.1"/>
    <path id="Tracé_333" data-name="Tracé 333" d="M1159.4,444.956H1127.85V379.48h17.075C1153.755,400.112,1159.373,422.766,1159.4,444.956Z" transform="translate(-497.912 -175.071)" fill="#1078ad" opacity="0.1"/>
    <rect id="Rectangle_78" data-name="Rectangle 78" width="19.092" height="24.744" transform="translate(408.977 132.131)" fill="#1078ad" opacity="0.1"/>
    <rect id="Rectangle_79" data-name="Rectangle 79" width="19.092" height="5.697" transform="translate(408.977 183.42)" fill="#1078ad" opacity="0.1"/>
    <rect id="Rectangle_80" data-name="Rectangle 80" width="19.092" height="16.622" transform="translate(408.977 191.536)" fill="#1078ad" opacity="0.1"/>
    <rect id="Rectangle_81" data-name="Rectangle 81" width="19.092" height="24.744" transform="translate(408.977 234.709)" fill="#1078ad" opacity="0.1"/>
    <rect id="Rectangle_82" data-name="Rectangle 82" width="19.092" height="24.744" transform="translate(408.977 285.997)" fill="#1078ad" opacity="0.1"/>
    <path id="Tracé_334" data-name="Tracé 334" d="M756.792,633.09a2.746,2.746,0,0,1,.566.04,3.193,3.193,0,0,1-.566-.034v5.749H737.7V614.1h19.092Z" transform="translate(-328.723 -276.814)" fill="#1078ad" opacity="0.1"/>
    <path id="Tracé_335" data-name="Tracé 335" d="M756.792,704.65v19.109q-9.583-.787-19.092-2.2V704.65Z" transform="translate(-328.723 -316.081)" fill="#1078ad" opacity="0.1"/>
    <rect id="Rectangle_83" data-name="Rectangle 83" width="81.821" height="1.818" transform="translate(251.191 268.067)" fill="#1078ad" opacity="0.1"/>
    <rect id="Rectangle_84" data-name="Rectangle 84" width="81.821" height="6.966" transform="translate(251.191 272.303)" fill="#1078ad" opacity="0.1"/>
    <rect id="Rectangle_85" data-name="Rectangle 85" width="81.821" height="11.202" transform="translate(251.191 302.104)" fill="#1078ad" opacity="0.1"/>
    <path id="Tracé_336" data-name="Tracé 336" d="M543.956,612.08v11.2h-64q-4.18-3.183-8.235-6.536c-1.88-1.546-3.738-3.132-5.624-4.667Z" transform="translate(-210.945 -275.938)" fill="#1078ad" opacity="0.1"/>
    <path id="Tracé_337" data-name="Tracé 337" d="M581.293,672.17V683.4h-6.757q-11.4-5.142-22.337-11.208Z" transform="translate(-248.282 -301.996)" fill="#1078ad" opacity="0.1"/>
    <rect id="Rectangle_86" data-name="Rectangle 86" width="16.107" height="16.107" transform="translate(475.041 199.13)" fill="#1078ad" opacity="0.1"/>
    <rect id="Rectangle_87" data-name="Rectangle 87" width="16.107" height="16.107" transform="translate(126.294 124.083)" fill="#1078ad" opacity="0.1"/>
    <rect id="Rectangle_88" data-name="Rectangle 88" width="16.107" height="16.107" transform="translate(126.294 161.496)" fill="#1078ad" opacity="0.1"/>
    <rect id="Rectangle_89" data-name="Rectangle 89" width="16.107" height="16.107" transform="translate(126.294 198.91)" fill="#1078ad" opacity="0.1"/>
    <rect id="Rectangle_90" data-name="Rectangle 90" width="16.107" height="16.107" transform="translate(126.294 236.317)" fill="#1078ad" opacity="0.1"/>
    <rect id="Rectangle_91" data-name="Rectangle 91" width="16.107" height="16.107" transform="translate(126.294 273.73)" fill="#1078ad" opacity="0.1"/>
    <rect id="Rectangle_92" data-name="Rectangle 92" width="16.107" height="16.107" transform="translate(126.294 311.143)" fill="#1078ad" opacity="0.1"/>
    <rect id="Rectangle_93" data-name="Rectangle 93" width="16.107" height="16.107" transform="translate(536.53 199.13)" fill="#1078ad" opacity="0.1"/>
    <rect id="Rectangle_94" data-name="Rectangle 94" width="16.107" height="16.107" transform="translate(475.041 238.86)" fill="#1078ad" opacity="0.1"/>
    <rect id="Rectangle_95" data-name="Rectangle 95" width="16.107" height="16.107" transform="translate(536.53 238.86)" fill="#1078ad" opacity="0.1"/>
    <rect id="Rectangle_96" data-name="Rectangle 96" width="16.107" height="16.107" transform="translate(475.041 278.584)" fill="#1078ad" opacity="0.1"/>
    <rect id="Rectangle_97" data-name="Rectangle 97" width="16.107" height="16.107" transform="translate(536.53 278.584)" fill="#1078ad" opacity="0.1"/>
    <rect id="Rectangle_98" data-name="Rectangle 98" width="16.107" height="16.107" transform="translate(475.041 318.313)" fill="#1078ad" opacity="0.1"/>
    <rect id="Rectangle_99" data-name="Rectangle 99" width="16.107" height="16.107" transform="translate(536.53 318.313)" fill="#1078ad" opacity="0.1"/>
    <rect id="Rectangle_100" data-name="Rectangle 100" width="16.107" height="16.107" transform="translate(475.041 358.043)" fill="#1078ad" opacity="0.1"/>
    <rect id="Rectangle_101" data-name="Rectangle 101" width="16.107" height="16.107" transform="translate(536.53 358.043)" fill="#1078ad" opacity="0.1"/>
    <path id="Tracé_338" data-name="Tracé 338" d="M838.4,712.717V702.33h16.1v8.909Z" transform="translate(-363.359 -304.563)" fill="#1078ad" opacity="0.1"/>
    <path id="Tracé_339" data-name="Tracé 339" d="M96.53,316.91v9.215h55.117V316.91Zm5.488,8.637H97.487v-8.053h4.531Zm5.488,0h-4.531v-8.053h4.531Zm5.477,0h-4.531v-8.053h4.531Zm5.488,0H113.94v-8.053h4.531Zm5.482,0h-4.531v-8.053h4.531Zm5.488,0H124.91v-8.053h4.531Zm5.488,0H130.4v-8.053h4.531Zm5.482,0H135.88v-8.053h4.531Zm5.482,0h-4.531v-8.053h4.531Zm5.488,0H146.85v-8.053h4.531Z" transform="translate(-50.681 -147.938)" fill="#1078ad" opacity="0.1"/>
    <path id="Tracé_340" data-name="Tracé 340" d="M96.53,364.27v9.215h55.117V364.27Zm5.488,8.637H97.487v-8.054h4.531Zm5.488,0h-4.531v-8.054h4.531Zm5.477,0h-4.531v-8.054h4.531Zm5.488,0H113.94v-8.054h4.531Zm5.482,0h-4.531v-8.054h4.531Zm5.488,0H124.91v-8.054h4.531Zm5.488,0H130.4v-8.054h4.531Zm5.482,0H135.88v-8.054h4.531Zm5.482,0h-4.531v-8.054h4.531Zm5.488,0H146.85v-8.054h4.531Z" transform="translate(-50.681 -168.475)" fill="#1078ad" opacity="0.1"/>
    <path id="Tracé_341" data-name="Tracé 341" d="M96.53,411.64v9.209h55.117V411.64Zm5.488,8.626H97.487v-8.054h4.531Zm5.488,0h-4.531v-8.054h4.531Zm5.477,0h-4.531v-8.054h4.531Zm5.488,0H113.94v-8.054h4.531Zm5.482,0h-4.531v-8.054h4.531Zm5.488,0H124.91v-8.054h4.531Zm5.488,0H130.4v-8.054h4.531Zm5.482,0H135.88v-8.054h4.531Zm5.482,0h-4.531v-8.054h4.531Zm5.488,0H146.85v-8.054h4.531Z" transform="translate(-50.681 -189.017)" fill="#1078ad" opacity="0.1"/>
    <path id="Tracé_342" data-name="Tracé 342" d="M96.53,459v9.209h55.117V459Zm5.488,8.631H97.487v-8.065h4.531Zm5.488,0h-4.531v-8.065h4.531Zm5.477,0h-4.531v-8.065h4.531Zm5.488,0H113.94v-8.065h4.531Zm5.482,0h-4.531v-8.065h4.531Zm5.488,0H124.91v-8.065h4.531Zm5.488,0H130.4v-8.065h4.531Zm5.482,0H135.88v-8.065h4.531Zm5.482,0h-4.531v-8.065h4.531Zm5.488,0H146.85v-8.065h4.531Z" transform="translate(-50.681 -209.555)" fill="#1078ad" opacity="0.1"/>
    <path id="Tracé_343" data-name="Tracé 343" d="M97,506.34c.215.872.47,1.733.731,2.588v-2h4.531v8.048h-2.43c.068.193.142.391.221.566h51.821v-9.2Zm10.761,8.631H103.23v-8.048h4.531Zm5.477,0h-4.531v-8.048h4.531Zm5.488,0h-4.531v-8.048h4.531Zm5.482,0h-4.531v-8.048h4.531Zm5.488,0h-4.531v-8.048H129.7Zm5.488,0h-4.531v-8.048h4.531Zm5.482,0h-4.531v-8.048h4.531Zm5.482,0h-4.531v-8.048h4.531Zm5.488,0h-4.531v-8.048h4.531Z" transform="translate(-50.885 -230.084)" fill="#1078ad" opacity="0.1"/>
    <path id="Tracé_344" data-name="Tracé 344" d="M119.54,553.7c.147.181.283.385.425.566h3v3.868l.968,1.133v-5.024h4.531v8.121H126.6c.181.187.357.385.566.566h34.451V553.7Zm14.419,8.665h-4.531v-8.087h4.531Zm5.488,0h-4.531v-8.087h4.531Zm5.488,0H140.4v-8.087h4.531Zm5.482,0h-4.531v-8.087h4.531Zm5.482,0h-4.531v-8.087H155.9Zm5.488,0h-4.531v-8.087h4.531Z" transform="translate(-60.659 -250.621)" fill="#1078ad" opacity="0.1"/>
    <path id="Tracé_345" data-name="Tracé 345" d="M172.93,601.06c.521.294,1.048.566,1.574.855v-.283h4.531v2.554c.328.141.64.294.963.441v-3h4.531v4.9a1.872,1.872,0,0,0,.266.1V601.06Z" transform="translate(-83.812 -271.159)" fill="#1078ad" opacity="0.1"/>
    <path id="Tracé_346" data-name="Tracé 346" d="M571.076,287.537ZM536.189,454.7Zm-36.4-85.049c.108.362.2.725.3,1.082h0C500,370.371,499.9,370.009,499.789,369.646Zm71.287-82.11ZM229,202.731v2.413h25.3V202.72ZM536.195,454.7Zm-36.405-85.049c.108.362.2.725.3,1.082h0C500,370.371,499.9,370.009,499.789,369.646Zm71.287-82.11ZM536.189,454.7Zm-36.4-85.049c.108.362.2.725.3,1.082h0C500,370.371,499.9,370.009,499.789,369.646Z" transform="translate(-108.126 -98.419)" fill="#1078ad" opacity="0.1"/>
    <ellipse id="Ellipse_31" data-name="Ellipse 31" cx="55.185" cy="8.863" rx="55.185" ry="8.863" transform="translate(443.094 470.962)" fill="#1078ad" opacity="0.1"/>
    <ellipse id="Ellipse_32" data-name="Ellipse 32" cx="55.185" cy="8.863" rx="55.185" ry="8.863" transform="translate(194.205 462.099)" fill="#1078ad" opacity="0.1"/>
    <path id="Tracé_347" data-name="Tracé 347" d="M492.753,366.975a.3.3,0,0,0-.085-.147c-.844-.833-11.6-16.05-11.6-16.05s-.566-1.7-1.484-3.908a3.883,3.883,0,0,0,.651-1.274,4.39,4.39,0,0,0,.108-.595c0-.062.045-.113.062-.176a4.3,4.3,0,0,0-.057-2.333,4.028,4.028,0,0,1-.232.566,9.468,9.468,0,0,0-.849-1.891c-1.427-2.458-3.466-4.531-4.967-6.927a18.741,18.741,0,0,1-2.554-12.437c0,.221,0,.447,0,.668a19.377,19.377,0,0,1,.34-2.549,17.7,17.7,0,0,1,.946-2.8c1.348-3.087,3.528-5.777,4.854-8.875A16.82,16.82,0,0,0,478.889,305a18.179,18.179,0,0,0,.5-5.692,9.069,9.069,0,0,1-.142,1.354,18.435,18.435,0,0,0-5.2-12.273c-4.627-4.65-11.27-6.456-17.625-7.408A16.146,16.146,0,0,1,449,278.154a12.9,12.9,0,0,0-8.45-1.614,13.937,13.937,0,0,0-8.6,4.253c-3.019,3.319-4.327,8.02-7.85,10.817-2.135,1.7-4.842,2.492-7.329,3.647s-4.837,2.832-5.635,5.312v.091l-.034.091c-.827,2.934.77,5.918,1.6,8.846a35.846,35.846,0,0,1,.968,9.362c.062,3.829.119,7.663.057,11.5-.028,1.506-.079,3.03-.193,4.531a23.74,23.74,0,0,0-3.891,1.563c-1.269.827-6.015,5.952-6.015,5.952l-9.283,35.465.125.142-.125.481.47-.108a47.789,47.789,0,0,0,9.475,7.963l.4,6.955s.476,6.977,6.892,9.86c.147,2.418.606,12.239-1.518,16.13a18.124,18.124,0,0,0-2,9.22s.742,5.9-.1,9a14.725,14.725,0,0,0-.108,6.321h0V445.8c0,6.281.074,26.409,0,28.686-.108,2.69,0,42.476,0,42.476s-.527,19.884-2.214,25.271-1.263,23.22-1.263,23.22-1.059,21.244,2.684,25.435c0,.187-.034.379-.04.566v.266c-.045,1.614.266,3.33,1.654,3.857a23.7,23.7,0,0,1,7.283,5.284c.708.935,4.825,3.262,10.194,2.639a76.757,76.757,0,0,1,10.132-.464h0s2.118-.385,1.433-3.019h0a23.583,23.583,0,0,0-3.273-5.828c.215.057.425.1.623.142l.2.04h.159a2.183,2.183,0,0,0,.261,0h.113a1.938,1.938,0,0,0,.317,0h0c1.422-.136,6.723,2.333,7.668,3.964s4.282,2.871,6.8,3.183a48.29,48.29,0,0,0,8.433-.532,31.071,31.071,0,0,0,4.723-.861c.748-.283.906-1.189.691-2.209h0a5.748,5.748,0,0,0-1.96-3.307,15.906,15.906,0,0,1-3.024-3.772l-.238-.38c1.58-1.506,4.435-6.434,5.3-7.453,1.053-1.24-1.7-46.6-1.7-46.6V513.665l4.219-21.521,2.951-11.389,2.532-17.194s4.429-20.083,3.064-22.054h0c0-.04-1.133-20.717-2.322-25.684-.515-2.214-.385-7.2-.079-12.046a2.379,2.379,0,0,0,.566-2.481,5.15,5.15,0,0,0-.328-.844v-.26a39,39,0,0,1,7.629-2.594c4.219-.827,3.166-3,3.166-3s.951-1.863,1.58-3,.108-11.185,0-12.012c-.04-.334-.3-2.181-.6-4.276,1.354-.963,3.115-2.158,5.035-3.291C493.875,369.852,493.054,367.57,492.753,366.975ZM437.7,510.562s-3.166,8.076-1.9,10.143-.21,9.741-.21,9.741l-1.059,11.389s-2.951,21.125-1.9,26.092c.827,3.9,1.133,15.535,1.229,20.389h0a1.414,1.414,0,0,0-.21.1l-.142.074c.487-1.909.283-5.771-2.135-13.541l-.2-32.1s-.374-37.073,2.554-41.219,3.965-11.185,3.965-11.185-.634,10.155-1.048,12.845S437.7,510.562,437.7,510.562Zm-5.9,79.776c-.028.068-.062.136-.085.2l-.159-.2A1.682,1.682,0,0,0,431.808,590.338Z" transform="translate(-179.83 -130.38)" fill="url(#linear-gradient)"/>
    <path id="Tracé_348" data-name="Tracé 348" d="M493.088,843.6c-1.637.629-10.511,1.7-12.992,1.4s-5.765-1.557-6.7-3.2-6.173-4.123-7.578-3.964a5.1,5.1,0,0,1-1.7-.238,20.91,20.91,0,0,1-2.832-1.087,5.257,5.257,0,0,1,.062-2.152,3.455,3.455,0,0,1,.125-.419,3.743,3.743,0,0,1,1.9-2.118l.2-.1a5.775,5.775,0,0,1,1.223-.374c4.451-.855,22.818.861,22.818.861s.515.923,1.223,2.067a15.805,15.805,0,0,0,2.99,3.795,5.8,5.8,0,0,1,1.931,3.33C493.982,842.4,493.824,843.32,493.088,843.6Z" transform="translate(-208.822 -370.919)" fill="#fff"/>
    <path id="Tracé_349" data-name="Tracé 349" d="M493.093,844.812c-1.637.629-10.506,1.7-12.986,1.4s-5.765-1.563-6.706-3.2-6.168-4.123-7.572-3.965-4.531-1.325-4.531-1.325a4.7,4.7,0,0,1,.929-3.812l2.832,2.01s7.578,2.351,8.982,4.531,3.964,3.4,7.663,3.619c2.764.181,9.113-.895,12.086-1.433C493.988,843.617,493.835,844.535,493.093,844.812Z" transform="translate(-208.827 -372.134)" opacity="0.1"/>
    <path id="Tracé_350" data-name="Tracé 350" d="M447.487,846.643a75.419,75.419,0,0,0-10,.47c-5.318.623-9.379-1.7-10.087-2.656a23.631,23.631,0,0,0-7.187-5.324c-1.376-.532-1.7-2.265-1.637-3.885v-.266a15.863,15.863,0,0,1,.453-3.041l22.037-.47,1.909,2.588.294.4,1.161,1.58s.527.691,1.218,1.7a24.177,24.177,0,0,1,3.234,5.867h0C449.577,846.258,447.487,846.643,447.487,846.643Z" transform="translate(-190.332 -371.076)" fill="#fff"/>
    <path id="Tracé_351" data-name="Tracé 351" d="M447.487,849.544a75.429,75.429,0,0,0-10,.47c-5.312.623-9.379-1.7-10.081-2.656a22.966,22.966,0,0,0-7.193-5.312c-1.376-.532-1.7-2.265-1.637-3.885,1.574.368,4.882,1.308,6.179,2.945,1.7,2.186,4.74,5.862,9.062,6.094,3.489.187,11.984-.436,15.1-.685C449.582,849.159,447.487,849.544,447.487,849.544Z" transform="translate(-190.332 -373.977)" opacity="0.1"/>
    <path id="Tracé_352" data-name="Tracé 352" d="M444.848,831.943c-.255,1.892-1.042,2.4-1.608,2.515a1.1,1.1,0,0,1-.419,0,1.393,1.393,0,0,1-.221-.034s-19.788,4.372-23.787.832a2.779,2.779,0,0,1-.283-.294,15.864,15.864,0,0,1,.453-3.041l22.037-.47,1.909,2.588a3.743,3.743,0,0,1,1.9-2.118Z" transform="translate(-190.316 -371.067)" opacity="0.1"/>
    <path id="Tracé_353" data-name="Tracé 353" d="M490.642,834.214c-.442.487-.81.765-1.042.668-1.042-.419-9.583-1.875-12.3-.623s-11.893.2-11.893.2,0-1.087-.051-2.832a5.765,5.765,0,0,1,1.223-.374c4.451-.855,22.818.861,22.818.861S489.94,833.069,490.642,834.214Z" transform="translate(-210.624 -370.88)" opacity="0.1"/>
    <path id="Tracé_354" data-name="Tracé 354" d="M481.178,588.11l-2.5,17.3-2.911,11.463L471.6,638.538v22.937s2.707,45.637,1.665,46.883-5,8.342-6.043,7.929-9.583-1.875-12.3-.629-11.893.209-11.893.209-.21-17.71-1.252-22.711,1.875-26.256,1.875-26.256l1.042-11.457s1.461-7.714.21-9.8,1.875-10.194,1.875-10.194-1.455-4.593-1.036-7.3,1.036-12.919,1.036-12.919-1.036,7.091-3.93,11.253-2.526,41.468-2.526,41.468l.2,32.282c5.216,17.092,0,15.422,0,15.422s-19.788,4.378-23.787.833-2.854-25.86-2.854-25.86-.413-17.919,1.252-23.334,2.192-25.423,2.192-25.423-.108-40.013,0-42.714c.079-2.265,0-22.546,0-28.884V568.4l2.39-5.935,28.318-3.545h13.547s20.389,4.791,22.5,6.859a.468.468,0,0,1,.113.125C485.556,567.9,481.178,588.11,481.178,588.11Z" transform="translate(-188.235 -252.885)" fill="#1078ad"/>
    <path id="Tracé_355" data-name="Tracé 355" d="M472.11,770.88s6.23,15,9.169,16.045S472.11,770.88,472.11,770.88Z" transform="translate(-213.551 -344.801)" opacity="0.1"/>
    <path id="Tracé_356" data-name="Tracé 356" d="M476.18,809.88s21.034,1.042,20.825,3.336S476.18,809.88,476.18,809.88Z" transform="translate(-215.316 -361.714)" opacity="0.1"/>
    <path id="Tracé_357" data-name="Tracé 357" d="M426.49,799.29c.832.787,16.045,2.265,14.793,3.7s-13.542,4.236-13.542,4.236Z" transform="translate(-193.768 -357.121)" opacity="0.1"/>
    <path id="Tracé_358" data-name="Tracé 358" d="M422.08,753.59c0,.623,3.126,20,3.964,20.836s7.708,1.665,7.708,1.665Z" transform="translate(-191.855 -337.303)" opacity="0.1"/>
    <path id="Tracé_359" data-name="Tracé 359" d="M445.426,282.471c-2.985,3.336-4.276,8.065-7.753,10.885-2.112,1.7-4.786,2.509-7.244,3.664s-4.893,2.917-5.624,5.533c-.816,2.945.759,5.952,1.586,8.9a36.838,36.838,0,0,1,.957,9.418c.057,3.857.119,7.714.051,11.571-.1,6.009-.6,12.3-3.789,17.387,11.514,3.664,23.758,4.163,35.833,4.633a36.163,36.163,0,0,0,6.961-.176,59.73,59.73,0,0,0,5.93-1.5,45.468,45.468,0,0,1,11.814-1.512,19.834,19.834,0,0,0,5.188-.345,5.119,5.119,0,0,0,3.743-3.291,6.113,6.113,0,0,0-.957-4.463c-1.4-2.469-3.4-4.531-4.9-6.966A19.143,19.143,0,0,1,485.988,319c1.337-3.109,3.489-5.816,4.8-8.931A18.837,18.837,0,0,0,487,290.083c-4.57-4.678-11.129-6.49-17.4-7.453a15.809,15.809,0,0,1-7.329-2.832,12.544,12.544,0,0,0-8.348-1.62,13.626,13.626,0,0,0-8.49,4.293Z" transform="translate(-192.519 -131.09)" fill="#3f3d56"/>
    <g id="Groupe_73" data-name="Groupe 73" transform="translate(231.318 169.992)" opacity="0.1">
      <path id="Tracé_360" data-name="Tracé 360" d="M532.919,333.356A18.842,18.842,0,0,0,531.475,342a18.522,18.522,0,0,1,1.444-6.139c1.331-3.109,3.483-5.816,4.8-8.931a18.071,18.071,0,0,0,1.32-8.223,17.608,17.608,0,0,1-1.32,5.72C536.4,327.545,534.25,330.247,532.919,333.356Z" transform="translate(-470.592 -318.71)"/>
      <path id="Tracé_361" data-name="Tracé 361" d="M428.4,338.678c.034,2.22.068,4.446.074,6.666q0-4.588-.074-9.164a36.755,36.755,0,0,0-.957-9.424,46.694,46.694,0,0,1-1.7-5.856c-.5,2.775.929,5.59,1.7,8.359A36.583,36.583,0,0,1,428.4,338.678Z" transform="translate(-424.715 -319.66)"/>
      <path id="Tracé_362" data-name="Tracé 362" d="M489.7,398.58a19.153,19.153,0,0,1-5.182.345,45.433,45.433,0,0,0-11.808,1.484,60.131,60.131,0,0,1-5.93,1.5,35.774,35.774,0,0,1-6.966.181c-11.667-.459-23.5-.951-34.672-4.287a19.228,19.228,0,0,1-1.133,2.152c11.514,3.659,23.758,4.163,35.827,4.633a35.775,35.775,0,0,0,6.966-.181,58.581,58.581,0,0,0,5.907-1.49,45.435,45.435,0,0,1,11.786-1.5,19.556,19.556,0,0,0,5.182-.351,5.123,5.123,0,0,0,3.744-3.285,4.5,4.5,0,0,0-.057-2.356A5.287,5.287,0,0,1,489.7,398.58Z" transform="translate(-424.01 -351.975)"/>
    </g>
    <path id="Tracé_363" data-name="Tracé 363" d="M480.7,363.634c-.419.94-2.186,9.062-2.605,9.894s-2.707,14.159-2.917,14.906-15.082-3.126-15.082-3.126l-8.954-7.5-9.2-9.158s-.272-8.263,6.507-10.914a10.336,10.336,0,0,1,1.416-.442c8.223-1.977,7.4-26.981,7.4-26.981l16.877,7.289s-3.126,14.589-3.019,17.4c.028.946.77,1.535,1.739,1.892a13.747,13.747,0,0,0,4.61.5S481.119,362.7,480.7,363.634Z" transform="translate(-200.466 -153.749)" fill="#fbbebe"/>
    <path id="Tracé_364" data-name="Tracé 364" d="M546.657,436.576l2.4.629s1.773,2.7-2.4,5.2a72.218,72.218,0,0,0-7.606,5.318l-12.318,3.749-2.373-7.448,11.463-8.7Z" transform="translate(-236.209 -199.29)" fill="#1078ad"/>
    <path id="Tracé_365" data-name="Tracé 365" d="M546.657,436.576l2.4.629s1.773,2.7-2.4,5.2a72.218,72.218,0,0,0-7.606,5.318l-12.318,3.749-2.373-7.448,11.463-8.7Z" transform="translate(-236.209 -199.29)" opacity="0.1"/>
    <path id="Tracé_366" data-name="Tracé 366" d="M401.331,449.194l-4.791,4.689s8.643,10,15.291,10.625,10.936-7.606,10.936-7.606l-5.754-9.062Z" transform="translate(-180.78 -204.715)" fill="#1078ad"/>
    <path id="Tracé_367" data-name="Tracé 367" d="M401.331,449.194l-4.791,4.689s8.643,10,15.291,10.625,10.936-7.606,10.936-7.606l-5.754-9.062Z" transform="translate(-180.78 -204.715)" opacity="0.1"/>
    <circle id="Ellipse_33" data-name="Ellipse 33" cx="16.668" cy="16.668" r="16.668" transform="translate(249.396 159.565)" opacity="0.1"/>
    <circle id="Ellipse_34" data-name="Ellipse 34" cx="16.668" cy="16.668" r="16.668" transform="translate(249.396 158.314)" fill="#fbbebe"/>
    <path id="Tracé_368" data-name="Tracé 368" d="M486.95,567.808a53.806,53.806,0,0,0-11.151,2.5c-6.23,2.073-55.049.034-55.729,0v-1.875l2.39-5.935,28.318-3.545h13.547s20.389,4.791,22.5,6.859C486.905,567.054,486.95,567.808,486.95,567.808Z" transform="translate(-190.984 -252.898)" opacity="0.1"/>
    <path id="Tracé_369" data-name="Tracé 369" d="M480.7,383.99c-.419.94-2.186,9.062-2.605,9.894s-2.707,14.159-2.917,14.906-15.082-3.126-15.082-3.126l-8.954-7.5-9.2-9.158s-.272-8.263,6.507-10.914l16.832,19.352,7.578-20.19a13.745,13.745,0,0,0,4.61.5S481.119,383.055,480.7,383.99Z" transform="translate(-200.466 -174.104)" opacity="0.1"/>
    <path id="Tracé_370" data-name="Tracé 370" d="M452.6,397.4l-17.228-19.822a7.221,7.221,0,0,0-6.836-.5c-3.857,1.671-8.648,3.024-9.9,3.857s-5.941,5.986-5.941,5.986l13.966,36.535-6.151,24.064s.94,12.3-1.456,16.775a18.411,18.411,0,0,0-1.982,9.271s.731,5.941-.1,9.062a15.093,15.093,0,0,0-.108,6.354s49.493,2.084,55.74,0a53.333,53.333,0,0,1,11.151-2.5s-1.133-20.842-2.265-25.843.94-24.064.94-24.064l-1.354-20.423,8.122-20.955s-4.4-13.434-8.988-14.787c0,0-8.331-1.982-10.1-2.917s-6.983-1.773-6.983-1.773l-2.736.918Z" transform="translate(-187.783 -173.441)" fill="#1078ad"/>
    <rect id="Rectangle_102" data-name="Rectangle 102" width="39.667" height="60.702" rx="2.94" transform="translate(250.936 239.444) rotate(3.89)" opacity="0.1"/>
    <rect id="Rectangle_103" data-name="Rectangle 103" width="39.667" height="60.702" rx="2.94" transform="translate(252.184 238.201) rotate(3.89)" fill="#3f3d56"/>
    <rect id="Rectangle_104" data-name="Rectangle 104" width="34.559" height="52.229" transform="translate(254.423 242.921) rotate(3.89)" fill="#fff"/>
    <rect id="Rectangle_105" data-name="Rectangle 105" width="28.234" height="7.869" transform="translate(257.645 256.594) rotate(4.004)" opacity="0.1"/>
    <rect id="Rectangle_106" data-name="Rectangle 106" width="4.48" height="4.1" transform="translate(280.322 289.457) rotate(3.89)" opacity="0.1"/>
    <rect id="Rectangle_107" data-name="Rectangle 107" width="22.932" height="4.1" transform="translate(257.504 278.332) rotate(3.89)" opacity="0.1"/>
    <rect id="Rectangle_108" data-name="Rectangle 108" width="23.877" height="6.303" transform="translate(260.813 241.698) rotate(3.89)" fill="#3f3d56"/>
    <rect id="Rectangle_109" data-name="Rectangle 109" width="23.877" height="6.303" transform="translate(260.813 241.698) rotate(3.89)" opacity="0.1"/>
    <path id="Tracé_371" data-name="Tracé 371" d="M480.447,572.56s-.21,30.844-8.337,48.553c0,0,9.8-23.339,9.8-24.274s5.414-10.732,3.964-13.649S480.447,572.56,480.447,572.56Z" transform="translate(-213.551 -258.8)" opacity="0.1"/>
    <path id="Tracé_372" data-name="Tracé 372" d="M472.262,306.738a11.593,11.593,0,0,1,1.886-7.765,9.566,9.566,0,0,0,7.4,10.081,1.252,1.252,0,0,1-.357-1.371,41.937,41.937,0,0,0,3.364,4.027c1.314,1.155,3.285,1.846,4.831,1.025,2.1-1.133,2.124-4.117,1.58-6.439A30.243,30.243,0,0,0,484,293a9.209,9.209,0,0,0-7.306-3.715,17.973,17.973,0,0,0-9.441,1.478,25.087,25.087,0,0,0-4.531,3.166L454.8,300.4a7.526,7.526,0,0,0-1.926,2.028,5.55,5.55,0,0,0-.6,2.124,11.446,11.446,0,0,0,5.335,10.8,8.444,8.444,0,0,1,5.057-7.929,2.2,2.2,0,0,1,.787,1.637l1.671-2.979a3.279,3.279,0,0,1,1.133-1.342c1.031-.566,2.316.1,3.194.9s1.733,1.8,2.911,1.92l.045-4.434" transform="translate(-204.925 -135.925)" opacity="0.1"/>
    <path id="Tracé_373" data-name="Tracé 373" d="M472.28,305.637a11.6,11.6,0,0,1,1.886-7.77,9.571,9.571,0,0,0,7.4,10.081,1.24,1.24,0,0,1-.357-1.365,42.645,42.645,0,0,0,3.364,4.027c1.314,1.161,3.285,1.846,4.831,1.019,2.1-1.133,2.124-4.117,1.58-6.434a30.243,30.243,0,0,0-6.96-13.292,11.138,11.138,0,0,0-3.891-3.024,11.33,11.33,0,0,0-3.4-.691,17.969,17.969,0,0,0-9.441,1.473,25.407,25.407,0,0,0-4.531,3.172l-7.929,6.468a7.449,7.449,0,0,0-1.926,2.028,5.523,5.523,0,0,0-.6,2.124,11.44,11.44,0,0,0,5.335,10.795,8.456,8.456,0,0,1,5.058-7.929,2.215,2.215,0,0,1,.787,1.637l1.665-2.968a3.245,3.245,0,0,1,1.133-1.342c1.031-.566,2.316.1,3.194.9s1.733,1.79,2.911,1.92l.045-4.44" transform="translate(-204.942 -135.447)" fill="#3f3d56"/>
    <path id="Tracé_374" data-name="Tracé 374" d="M463.025,480.024c-1.456-.736-25.525,3.019-25.525,3.019a137.751,137.751,0,0,0-13.547-2.707c-9.583-1.575-10.194-10.942-10.194-10.942l-1.048-18.752,3.234-2.832,13.853,9.062a44.743,44.743,0,0,1,0,5.409,7.63,7.63,0,0,0-.464,1.7.566.566,0,0,0,.464.51c.94.238,13.751,2.311,13.751,2.311s29.694-2.033,37.1,7.969a7.518,7.518,0,0,1,1.308,2.469C483.787,484.073,464.344,480.675,463.025,480.024Z" transform="translate(-187.792 -204.702)" fill="#fbbebe"/>
    <path id="Tracé_375" data-name="Tracé 375" d="M494.36,489.688c-1.133.5-1.835.867-1.835.867s-10.625-.312-16.594-2.475-13.224-1.778-13.224-1.778-24.874-4.282-21.017-9.871a.566.566,0,0,0,.464.51c.94.238,13.751,2.311,13.751,2.311s29.694-2.033,37.1,7.969A7.521,7.521,0,0,1,494.36,489.688Z" transform="translate(-200.182 -217.113)" opacity="0.1"/>
    <path id="Tracé_376" data-name="Tracé 376" d="M504.7,441.58s1.461,10.313,1.563,11.151.629,10.936,0,12.086-1.563,3.019-1.563,3.019,1.042,2.186-3.126,3.024a42.782,42.782,0,0,0-9.062,3.33s-10.63-.311-16.566-2.5-13.23-1.773-13.23-1.773-31.574-5.42-18.027-12.035,23.13,2.345,23.13,2.345l15.1-.935s5.63-3.443,7.193-3.126a5.782,5.782,0,0,0,3.228-.521l.108-10.942Z" transform="translate(-200.197 -202.001)" fill="#fbbebe"/>
    <path id="Tracé_377" data-name="Tracé 377" d="M408.668,396.759l-3.024-.159-9.164,35.68s9.894-2.5,14.159,0,12.086,3.019,12.086,3.019l-2.917-28.442Z" transform="translate(-180.754 -182.495)" opacity="0.1"/>
    <path id="Tracé_378" data-name="Tracé 378" d="M408.668,395.649l-3.024-.159-9.164,35.68s9.894-2.5,14.159,0,12.086,3.019,12.086,3.019l-2.917-28.442Z" transform="translate(-180.754 -182.014)" fill="#1078ad"/>
    <path id="Tracé_379" data-name="Tracé 379" d="M535.254,409.57l4.163.94s10.63,15.291,11.463,16.147-3.964,3.965-5.941,3.965-11.667,1.133-14.482,3.749-1.642-10.551-1.642-10.851,3.494-8.609,3.494-8.609Z" transform="translate(-238.036 -188.12)" opacity="0.1"/>
    <path id="Tracé_380" data-name="Tracé 380" d="M535.254,408.47l4.163.934s10.63,15.32,11.463,16.152-3.964,3.964-5.941,3.964-11.667,1.133-14.482,3.749-1.642-10.551-1.642-10.851,3.517-8.637,3.517-8.637Z" transform="translate(-238.036 -187.643)" fill="#1078ad"/>
    <g id="Groupe_74" data-name="Groupe 74" transform="translate(247.315 161.168)" opacity="0.1">
      <path id="Tracé_381" data-name="Tracé 381" d="M474.137,304.433a8.345,8.345,0,0,1,.028-1.3,11.593,11.593,0,0,0-1.744,4.276v1.58c0,.917,0,1.841-.028,2.758h-.079v.425a2.26,2.26,0,0,0-.028-.436c-1.133-.181-1.943-1.133-2.786-1.892s-2.163-1.484-3.194-.9a3.247,3.247,0,0,0-1.133,1.342l-1.682,2.968a2.191,2.191,0,0,0-.787-1.631,8.444,8.444,0,0,0-5.057,7.929,11.508,11.508,0,0,1-5.375-9.022,11.452,11.452,0,0,0,5.375,10.268,8.456,8.456,0,0,1,5.057-7.929,2.214,2.214,0,0,1,.787,1.637l1.665-2.968a3.245,3.245,0,0,1,1.133-1.342c1.031-.566,2.316.1,3.194.9s1.733,1.79,2.911,1.92q0-2.175.045-4.338A11.535,11.535,0,0,1,474.137,304.433Z" transform="translate(-452.256 -303.13)"/>
      <path id="Tracé_382" data-name="Tracé 382" d="M487.5,313.436c.028-.385.074-.77.13-1.133l.062-1.563A11.465,11.465,0,0,0,487.5,313.436Z" transform="translate(-467.534 -306.43)"/>
      <path id="Tracé_383" data-name="Tracé 383" d="M511.518,323.566c-1.546.827-3.517.136-4.831-1.019a41.932,41.932,0,0,1-3.364-4.027,1.252,1.252,0,0,0,.357,1.371,1.333,1.333,0,0,1-.328-.085,37.422,37.422,0,0,0,3.336,3.964c1.3,1.133,3.285,1.846,4.831,1.019s1.988-2.764,1.852-4.65A3.932,3.932,0,0,1,511.518,323.566Z" transform="translate(-474.369 -309.804)"/>
      <path id="Tracé_384" data-name="Tracé 384" d="M497.95,314.326a9.628,9.628,0,0,1-7.057-8.416,9.566,9.566,0,0,0,7.419,9.758A1.246,1.246,0,0,1,497.95,314.326Z" transform="translate(-469.002 -304.336)"/>
    </g>
    <path id="Tracé_385" data-name="Tracé 385" d="M891.2,388.783s-2.231-.312-2.231-3.557-1.6-9.322-1.6-9.322h0s-1.382-10.574-3.291-12.25-4.361-11.52-4.361-11.52-.419-5.341-1.274-6.49-2.011-3.964-3.715-7.98-8.8-6.768-8.8-6.768-12.851-7.453-16.492-9.883h0a5.629,5.629,0,0,1-.929-.7c-.634-.827-3.4-.844-3.4-.844a55.96,55.96,0,0,1-.657-5.822v-.612a19.594,19.594,0,0,0,8.614-10.659c.068-.215.125-.436.187-.657a1.841,1.841,0,0,0,1.133-1,20.023,20.023,0,0,1,.742-2.265,8.4,8.4,0,0,1,2.1-1.835c1.8-1.535,2.266-4.112,2.18-6.451-.057-1.9-.362-3.817-.244-5.7a2.238,2.238,0,0,1,.034-.476c.034-.278.074-.566.125-.838.278-1.4.883-2.73,1.223-4.123a5.3,5.3,0,0,0-.419-4.163c-1.161-1.761-3.579-2.113-5.7-2.265-2.407-.2-4.531.057-6.1-1.943a21.338,21.338,0,0,0-2.424-2.922c-.317-.295-3.4-2.18-3.4-2.3a13.767,13.767,0,0,0-9.628-.742c-1.6.464-3.1,1.223-4.729,1.6-3.489.827-7.51-.068-10.478,1.931a12.365,12.365,0,0,0-3.573,4.689q-1.133,2.163-2.3,4.333a27.878,27.878,0,0,0-3.053,7.414,12.557,12.557,0,0,0-.21,1.739h0v.9a3.111,3.111,0,0,0,.034.566,3.259,3.259,0,0,0,.04.351c.04.119.051.385.085.566s.1.5.17.748a1.147,1.147,0,0,0,.1.317c.034.108.124.379.2.566s.079.2.124.294a5.347,5.347,0,0,0,.289.566c.045.074.079.147.125.221a6.416,6.416,0,0,0,.521.759c1.206,1.512,3,2.475,4.315,3.891v.634a19.387,19.387,0,0,0,8.881,15.8c0,.215.028.436.04.657a32.343,32.343,0,0,1-.062,5.041,2.39,2.39,0,0,0-1.88-.838,2.694,2.694,0,0,0-.725.062l-.051-.04h0v.051c-1.246.306-2.781,1.6-4.248,5.29,0,0-4.463,5.029-7.861,4.82s-12,5.239-12,5.239-8.393,5.443-10.194,10.993a76.848,76.848,0,0,1-3.619,9.22l-10.4,21.363h0l-1.909,16.99s1.059,7.538.849,8.693,4.355,11.52,4.355,11.52,15.082,26.494,21.244,27.853l.442-.306a3.849,3.849,0,0,0,.832.306l1.269-.889a13.241,13.241,0,0,1-.1,2.985c-.844,2.622.323,19.692,1.807,23.039s.957,47.239.957,47.239l-.21,3.868a1.643,1.643,0,0,0,.051.34l-.051.917.153.079a10.94,10.94,0,0,1-.153,3.693,40.939,40.939,0,0,0-.747,6.5s-4.248,27.117-2.231,32.565,3.721,11.418,3.721,11.418,2.124,6.8.1,7.929-7.748,3.143-6.581,5.969c1.076,2.617,5.159,9.628,5.765,10.653l-.051.566-.833,9.022a11.329,11.329,0,0,0,.957,3.443,5.922,5.922,0,0,0,6.054,3.783c.567-.04,1.218-.1,1.858-.187a80.487,80.487,0,0,0,13.757-3.585,5.42,5.42,0,0,1-1.07-.889h0a3.11,3.11,0,0,1-.946-2.265c.091-1.648-2.984-9.469-3.755-11.4l-.175-.431s7.011-7.334,5.845-13.825c0,0-7.759-4.531-5.2-7.023s7.119-9.628,7.119-9.628.21-26.7,0-30.685a33.084,33.084,0,0,1,.391-8.291c.085-.408.187-.81.295-1.212a72.354,72.354,0,0,0,10.681.81q1.96,0,3.965-.079,0,.567.051,1.223c.295,6.615.844,18.219,1.291,22.529.634,6.173,4.14,22.83,4.14,22.83s-6.689,4.287,1.167,14.872c0,0,0,3.829-.521,4.389h0a47.937,47.937,0,0,0-1.342,5.533c-.328,1.988-.464,4.01.068,5.052,1.274,2.5,8.92,2.3,8.92,2.3h0a1.2,1.2,0,0,1,.187-.028,10.913,10.913,0,0,1,8.093,2.435c2.906,2.333,13.927,1.314,19.9.566,2.339-.3,3.9-.566,3.9-.566a2.293,2.293,0,0,0,.079-.816h0c-.062-1.467-1.212-4.684-9-7.555,0,0-7.329-4.927-7.227-9.22h-1.008c.532-.017.906-.017.906-.017s-2.871-10.472-1.7-11.327-2.339-12.46-2.339-12.46-2.01-19.482-2.124-20.842a11.979,11.979,0,0,1,.532-3.455l-.532-10.687s-.1-3.551,0-4.706a22.118,22.118,0,0,0-.238-3c-.051-.4-.1-.81-.158-1.218,2.747-.7,4.531-1.337,4.531-1.337l-.317-37.181c2.334-4.531,2.764-14.476,2.753-21.521,0-4.531-.2-7.884-.2-7.884l3.189-5.2s.736-6.23-.43-7.595a1.308,1.308,0,0,1,.142-1.784,5.936,5.936,0,0,1,.708-.5.884.884,0,0,1-.073-.125,5.642,5.642,0,0,1,.708-.5s-1.133-1.756-.119-2.5c.951.646,1.8,1.161,2.447,1.529-.045.413-.091.651-.091.651l.272-.566,1,.566s5-9.951,4.888-11.412,3.4-7.646,3.4-7.646.425-3.251,2.339-4.61,1.484-11.208,1.484-11.208.532-5.131,1.807-7.221S891.2,388.783,891.2,388.783Zm-95.578-4.367.1,2.373c-.566-.912-.974-1.563-.974-1.563Z" transform="translate(-342.947 -125.06)" fill="url(#linear-gradient-2)"/>
    <path id="Tracé_386" data-name="Tracé 386" d="M951.481,548.236l-1.223,5.21s-9.8-5.012-11.559-11.355,2.951-8.761,2.951-8.761l9.135,3.862Z" transform="translate(-415.715 -241.788)" fill="#fff"/>
    <path id="Tracé_387" data-name="Tracé 387" d="M951.481,548.236l-1.223,5.21s-9.8-5.012-11.559-11.355,2.951-8.761,2.951-8.761l9.135,3.862Z" transform="translate(-415.715 -241.788)" opacity="0.1"/>
    <path id="Tracé_388" data-name="Tracé 388" d="M847.5,856.984s-9.062,3.33-15.291,3.749a5.818,5.818,0,0,1-5.941-3.761,11.494,11.494,0,0,1-.94-3.4l.821-8.977.43-4.774,13.236-3.443,1.875,5.737.175.43c.748,1.92,3.772,9.7,3.681,11.327a3.108,3.108,0,0,0,.923,2.265A5.263,5.263,0,0,0,847.5,856.984Z" transform="translate(-366.724 -373.205)" fill="#fff"/>
    <path id="Tracé_389" data-name="Tracé 389" d="M942.591,851.942a2.265,2.265,0,0,1-.079.816s-19.38,3.228-23.345,0a10.5,10.5,0,0,0-8.133-2.4s-7.5.2-8.75-2.265c-.521-1.036-.385-3.047-.062-5.023a48.161,48.161,0,0,1,1.314-5.5l.3-.238,1.784-1.433,20.887-.617h.159c-.1,4.27,7.085,9.169,7.085,9.169C941.4,847.281,942.528,850.481,942.591,851.942Z" transform="translate(-399.944 -372.728)" fill="#fff"/>
    <path id="Tracé_390" data-name="Tracé 390" d="M942.594,857.9a2.333,2.333,0,0,1-.085.815s-19.38,3.228-23.339,0a10.5,10.5,0,0,0-8.139-2.4s-7.5.2-8.756-2.265c-.515-1.036-.385-3.047-.062-5.029,2.888.289,7.448,1.008,9.237,2.73,2.707,2.605,7.295,5.21,10.1,5.42C923.774,857.316,936.975,857.735,942.594,857.9Z" transform="translate(-399.941 -378.691)" opacity="0.1"/>
    <path id="Tracé_391" data-name="Tracé 391" d="M848.222,872.1s-9.061,3.33-15.291,3.749a5.818,5.818,0,0,1-5.941-3.761c2.311.776,5.511,1.586,7.193.844,1.994-.889,9.062-1.456,13.026-1.7a5.155,5.155,0,0,0,1.014.866Z" transform="translate(-367.444 -388.318)" opacity="0.1"/>
    <path id="Tracé_392" data-name="Tracé 392" d="M876.684,372.847c-7.476-2.905-17.092-12.505-14.691-16.991a10.155,10.155,0,0,0,.934-3.6,32.852,32.852,0,0,0,.068-5.1,69.98,69.98,0,0,0-1-8.3s23.339.527,21.98,3.964a12.755,12.755,0,0,0-.351,4.718c.113,1.954.391,4.18.685,6.054.4,2.566.816,4.531.816,4.531s-1.433,2-2.265,2.107S887.41,377.009,876.684,372.847Z" transform="translate(-382.46 -157.456)" fill="#cf6f80"/>
    <path id="Tracé_393" data-name="Tracé 393" d="M842.456,842.5l-.176.193c-6.978-8.438-15.416,2.084-15.416,2.084l-.125-.226.431-4.774,13.236-3.443,1.875,5.737Z" transform="translate(-367.335 -373.184)" opacity="0.1"/>
    <path id="Tracé_394" data-name="Tracé 394" d="M927.914,835.857s-5.1-.1-7.816,2.3-15.858.515-15.292,0a1.957,1.957,0,0,0,.294-.867l1.784-1.433,20.887-.618C927.851,835.636,927.914,835.857,927.914,835.857Z" transform="translate(-401.181 -372.711)" opacity="0.1"/>
    <path id="Tracé_395" data-name="Tracé 395" d="M846.72,710.755a15.9,15.9,0,0,0-.861,2.905,33.269,33.269,0,0,0-.391,8.246c.21,3.964,0,30.532,0,30.532s-4.48,7.085-6.983,9.583,5.1,6.983,5.1,6.983c1.133,6.462-5.732,13.756-5.732,13.756-6.978-8.439-15.416,2.079-15.416,2.079s-4.587-7.929-5.732-10.761,4.48-4.786,6.457-5.941-.1-7.929-.1-7.929-1.665-5.941-3.647-11.361,2.186-32.4,2.186-32.4a41.882,41.882,0,0,1,.731-6.468,10.96,10.96,0,0,0,.153-3.67c-.034-.414-.074-.753-.1-.991s-.051-.34-.051-.34l.079-.136,2.832-5.278S848.079,707.431,846.72,710.755Z" transform="translate(-362.917 -313.878)" fill="#1078ad"/>
    <path id="Tracé_396" data-name="Tracé 396" d="M923.226,780.664s-5.1-.108-7.816,2.265-15.858.521-15.292,0,.515-4.372.515-4.372c-7.708-10.528-1.133-14.8-1.133-14.8s-3.438-16.566-4.061-22.711c-.436-4.287-.974-15.858-1.263-22.411-.125-2.832-.2-4.786-.2-4.786l6.241-1.24.81-.159,15.189-3.053s.419,2.832.7,5.148a22.6,22.6,0,0,1,.232,2.985c-.1,1.133,0,4.684,0,4.684l.521,10.625a12.25,12.25,0,0,0-.521,3.438c.108,1.359,2.084,20.734,2.084,20.734s3.438,11.565,2.265,12.4S923.226,780.664,923.226,780.664Z" transform="translate(-396.494 -318.14)" fill="#1078ad"/>
    <path id="Tracé_397" data-name="Tracé 397" d="M884.26,342.855a12.75,12.75,0,0,0-.351,4.718,19.4,19.4,0,0,1-20.627-.385,69.93,69.93,0,0,0-1-8.3S885.62,339.417,884.26,342.855Z" transform="translate(-382.747 -157.469)" opacity="0.1"/>
    <path id="Tracé_398" data-name="Tracé 398" d="M887.33,308.971a19.376,19.376,0,1,1-38.75.464v-.464a19.381,19.381,0,0,1,38.761,0Z" transform="translate(-376.807 -136.09)" fill="#cf6f80"/>
    <path id="Tracé_399" data-name="Tracé 399" d="M876.684,383.1c-7.476-2.905-17.092-12.505-14.691-16.991a10.155,10.155,0,0,0,.934-3.6l10.234,8.416,6.332,5.193,4.814-12.25c.4,2.566.816,4.531.816,4.531s-1.433,2-2.265,2.107S887.41,387.265,876.684,383.1Z" transform="translate(-382.46 -167.712)" opacity="0.1"/>
    <path id="Tracé_400" data-name="Tracé 400" d="M881.819,401.063l-8.546,143.57-11.146.731L833.26,462.115l4.735-98.834,1-20.881,12.833,10.54,6.332,5.193,4.956-12.613,9.214,8.031Z" transform="translate(-361.13 -148.48)" fill="#1078ad"/>
    <path id="Tracé_401" data-name="Tracé 401" d="M851.134,710.79a15.885,15.885,0,0,0-.861,2.906,82.128,82.128,0,0,1-23.39-7.3l-.153-.079.051-.912v-.476l2.832-5.278S852.493,707.466,851.134,710.79Z" transform="translate(-367.331 -313.913)" opacity="0.1"/>
    <path id="Tracé_402" data-name="Tracé 402" d="M900.382,720.405a57.332,57.332,0,0,1-6.264.719c-.125-2.832-.2-4.786-.2-4.786l6.275-1.268Z" transform="translate(-396.468 -320.599)" opacity="0.1"/>
    <path id="Tracé_403" data-name="Tracé 403" d="M922.362,714.548c-4.027,1.048-10.251,2.226-15.813,1.49l-.079-3.585,15.19-3.053S922.062,712.209,922.362,714.548Z" transform="translate(-401.91 -318.14)" opacity="0.1"/>
    <path id="Tracé_404" data-name="Tracé 404" d="M850.19,565.562c-23.221,3.964-44.487-7.4-44.487-7.4l.2-3.851s.527-43.66-.934-47.007-2.6-20.3-1.773-22.886-3.019-41.666-3.019-41.666l-.623-15.858L776.74,417.62l10.194-21.255a76.815,76.815,0,0,0,3.545-9.175c1.773-5.522,10-10.942,10-10.942s8.439-5.414,11.774-5.21,7.708-4.791,7.708-4.791c3.228-8.229,6.151-4.531,6.151-4.531a7.284,7.284,0,0,1-.159,1.218c-1.133,9.033,18.316,37.577,18.593,38.087h0l1.875,45.116L848.3,503.23Z" transform="translate(-345.653 -167.008)" opacity="0.1"/>
    <path id="Tracé_405" data-name="Tracé 405" d="M849.077,565.562c-23.22,3.964-44.493-7.4-44.493-7.4l.21-3.851s.521-43.66-.94-47.007-2.6-20.315-1.767-22.926-3.036-41.649-3.036-41.649l-.629-15.858L775.61,417.6,785.8,396.342a78.009,78.009,0,0,0,3.545-9.169c1.773-5.5,10.03-10.931,10.03-10.931s8.439-5.414,11.769-5.21,7.725-4.786,7.725-4.786c3.234-8.229,6.8-4.531,6.8-4.531,0,.4-.34.566-.159,1.218,2.492,8.762,17.693,37.578,17.97,38.087h0l1.875,45.116,1.835,57.122Z" transform="translate(-345.163 -167.008)" fill="#fff"/>
    <path id="Tracé_406" data-name="Tracé 406" d="M877.9,403.285c-2.5-1.042-15.728-16.147-15.728-16.147V383.7c-.481-1.133-3.347-.442-5.664.351l1-20.881,1.133.94C861.114,372.866,877.629,402.781,877.9,403.285Z" transform="translate(-380.245 -167.998)" opacity="0.1"/>
    <path id="Tracé_407" data-name="Tracé 407" d="M879.007,401.1c-2.5-1.048-15.733-16.147-15.733-16.147v-3.443c-.481-1.133-3.341-.442-5.664.351L858.59,361l1.133.934C862.22,370.679,878.729,400.588,879.007,401.1Z" transform="translate(-380.722 -167.057)" fill="#fff"/>
    <path id="Tracé_408" data-name="Tracé 408" d="M826.9,563.525c.311,0,16.147-1.665,16.147-1.665s9.588,18.859,8.96,23.441-1.767,8.648-5.624,7.929-20.757.566-20.757.566Z" transform="translate(-366.854 -254.16)" opacity="0.1"/>
    <path id="Tracé_409" data-name="Tracé 409" d="M825.794,561.315c.317,0,16.152-1.665,16.152-1.665s9.583,18.888,8.96,23.419-1.773,8.648-5.624,7.929-20.763.567-20.763.567Z" transform="translate(-366.373 -253.202)" fill="#fff"/>
    <path id="Tracé_410" data-name="Tracé 410" d="M841.21,547s14.533,7.816,14.844,10.194-7.4-1.042-9.062-1.461a21.6,21.6,0,0,0-3.336-.521l-11.106.3Z" transform="translate(-369.855 -247.716)" fill="#cf6f80"/>
    <circle id="Ellipse_35" data-name="Ellipse 35" cx="1.529" cy="1.529" r="1.529" transform="translate(492.066 233.202)" opacity="0.1"/>
    <circle id="Ellipse_36" data-name="Ellipse 36" cx="1.529" cy="1.529" r="1.529" transform="translate(492.066 232.579)" fill="#3f3d56"/>
    <circle id="Ellipse_37" data-name="Ellipse 37" cx="1.529" cy="1.529" r="1.529" transform="translate(494.881 299.397)" opacity="0.1"/>
    <circle id="Ellipse_38" data-name="Ellipse 38" cx="1.529" cy="1.529" r="1.529" transform="translate(494.881 298.769)" fill="#3f3d56"/>
    <circle id="Ellipse_39" data-name="Ellipse 39" cx="1.529" cy="1.529" r="1.529" transform="translate(493.595 266.3)" opacity="0.1"/>
    <circle id="Ellipse_40" data-name="Ellipse 40" cx="1.529" cy="1.529" r="1.529" transform="translate(493.595 265.677)" fill="#3f3d56"/>
    <path id="Tracé_411" data-name="Tracé 411" d="M930.194,475.88s1.042,1.563,0,2.265.1,2.5.1,2.5-2.6,1.518-1.456,2.894.419,7.555.419,7.555l-3.126,5.2s.187,3.336.2,7.844c0,7.034-.413,16.923-2.7,21.431l.306,36.989s-10.948,4-20.111,2.781l-1.359-59.353s1.982-33.658,2.713-40.115a67.181,67.181,0,0,0,.521-10.109s-.312-10.1-1.359-14.787c0,0-1.133-20.321-1.246-25.945-.051-2.69.091-10.54.249-18,.176-8.161.374-15.858.374-15.858l-2.067-16.362s2.067-.2,2.69.623a5.951,5.951,0,0,0,.906.7h0c3.574,2.413,16.181,9.832,16.181,9.832s6.977,2.775,8.648,6.751,2.832,6.8,3.642,7.929,1.252,6.456,1.252,6.456,2.4,9.8,4.276,11.457,3.222,12.194,3.222,12.194L925.9,433.778s-1.455,21.669-1.767,22.507S930.194,475.88,930.194,475.88Z" transform="translate(-399.82 -168.701)" fill="#fff"/>
    <path id="Tracé_412" data-name="Tracé 412" d="M930.81,475.728s1.036,1.563,0,2.265.1,2.5.1,2.5-2.6,1.518-1.456,2.894.419,7.555.419,7.555l-3.115,5.2s.187,3.336.2,7.844c0,7.034-.413,16.923-2.7,21.431l.312,36.988s-10.948,4-20.111,2.781L903.1,505.841s1.977-33.658,2.713-40.115a66.6,66.6,0,0,0,.515-10.109s-.312-10.1-1.354-14.787c0,0-1.133-20.321-1.251-25.945-.051-2.69.09-10.54.249-18,.176-8.161.374-15.858.374-15.858l-2.73-16.583s2.73,0,3.358.844a5.379,5.379,0,0,0,.906.7h0c3.568,2.413,16.175,9.832,16.175,9.832s6.961,2.775,8.66,6.751,2.832,6.8,3.642,7.929,1.252,6.456,1.252,6.456,2.4,9.8,4.276,11.457,3.228,12.194,3.228,12.194l-16.566,13.026s-1.456,21.669-1.773,22.507S930.81,475.728,930.81,475.728Z" transform="translate(-399.807 -168.549)" fill="#fff"/>
    <path id="Tracé_413" data-name="Tracé 413" d="M911.443,386.785l1.5,4.361-7.878,7.929c.176-8.161.374-15.858.374-15.858l-2.73-16.577s2.73,0,3.358.844a5.381,5.381,0,0,0,.906.7h0l6.694,19.307Z" transform="translate(-400.28 -169.503)" opacity="0.1"/>
    <path id="Tracé_414" data-name="Tracé 414" d="M910.313,384.566l1.5,4.355-7.872,7.929c.17-8.161.374-15.858.374-15.858L901.58,364.41s2.735,0,3.359.844a5.658,5.658,0,0,0,.906.7h0l6.734,19.324Z" transform="translate(-399.79 -168.536)" fill="#fff"/>
    <path id="Tracé_415" data-name="Tracé 415" d="M887.33,308.971a19.316,19.316,0,0,1-.951,6.009.8.8,0,0,1-.612-.147c-.153-5.1-2.656-9.889-5.743-13.961a14.793,14.793,0,0,0-3.115-3.228,6.1,6.1,0,0,0-4.225-1.195c-1.7.232-3.2,1.388-4.916,1.535-2.265.187-4.293-1.382-6.541-1.456a6.411,6.411,0,0,0-4.808,2.231,13.117,13.117,0,0,0-2.577,4.774,27.967,27.967,0,0,0-1.439,8.246c-.028,1.586-.181,3.574-1.654,4.151a8.438,8.438,0,0,0-2.135-6.456l-.034-.04v-.464a19.381,19.381,0,0,1,38.761,0Z" transform="translate(-376.807 -136.09)" opacity="0.1"/>
    <path id="Tracé_416" data-name="Tracé 416" d="M871.488,268.508a13.344,13.344,0,0,0-9.413-.736c-1.569.464-3.047,1.218-4.638,1.6-3.4.821-7.362-.068-10.279,1.92a12.27,12.27,0,0,0-3.5,4.667l-2.265,4.31a28,28,0,0,0-3,7.363,9.418,9.418,0,0,0,1.444,7.606c1.2,1.518,2.973,2.475,4.276,3.908a8.494,8.494,0,0,1,2.13,6.473c1.472-.566,1.62-2.566,1.654-4.151a28.007,28.007,0,0,1,1.439-8.246,13.12,13.12,0,0,1,2.577-4.774,6.416,6.416,0,0,1,4.808-2.237c2.265.079,4.3,1.648,6.541,1.456,1.7-.142,3.205-1.3,4.916-1.529a6.071,6.071,0,0,1,4.225,1.2,14.506,14.506,0,0,1,3.109,3.228c3.092,4.078,5.6,8.846,5.748,13.961.64.464,1.563-.147,1.88-.872a20.717,20.717,0,0,1,.731-2.265,8.377,8.377,0,0,1,2.05-1.829c1.767-1.524,2.209-4.089,2.141-6.417s-.521-4.689-.079-6.977c.266-1.4.867-2.718,1.195-4.106a5.368,5.368,0,0,0-.408-4.14c-1.133-1.75-3.517-2.1-5.6-2.265-2.362-.2-4.474.057-5.981-1.931a22.143,22.143,0,0,0-2.379-2.911C874.507,270.5,871.488,268.633,871.488,268.508Z" transform="translate(-372.292 -126.398)" fill="#512e4e"/>
    <path id="Tracé_417" data-name="Tracé 417" d="M782.318,471.986,776.4,461.05l-1.875,16.877s1.042,7.5.833,8.648,4.27,11.457,4.27,11.457,14.8,26.364,20.842,27.717l20.389-14.589-5.414-6.875s-1.875-.731-2.345,0c0,0-10.058-17.3-11.095-18.542s-.838-3.755-.838-3.755-1.563-1.665-1.042-3.228-2.99-6.977-2.99-6.977l3.228-3.019Z" transform="translate(-344.695 -210.444)" opacity="0.1"/>
    <path id="Tracé_418" data-name="Tracé 418" d="M775.758,458.84l-1.563,1.252-1.875,16.877s1.042,7.5.833,8.648,4.276,11.457,4.276,11.457,14.793,26.364,20.836,27.717L818.687,510.2l-5.42-6.875s-1.875-.731-2.345,0c0,0-10.053-17.3-11.095-18.542S799,481.03,799,481.03s-1.563-1.665-1.042-3.228-3.024-6.977-3.024-6.977l3.228-3.019Z" transform="translate(-343.736 -209.485)" fill="#fff"/>
    <path id="Tracé_419" data-name="Tracé 419" d="M940.609,567.9c1.133,1.376.419,7.561.419,7.561l-3.126,5.171s.187,3.341.2,7.85l-5.256,1.642a3.126,3.126,0,0,1-4.055-3.081l.912-29.224,12.261,4.684c-1.042.725.1,2.5.1,2.5S939.465,566.525,940.609,567.9Z" transform="translate(-411.588 -252.408)" opacity="0.1"/>
    <path id="Tracé_420" data-name="Tracé 420" d="M941.717,566.8c1.133,1.371.419,7.555.419,7.555l-3.115,5.177s.187,3.336.2,7.844l-5.352,1.671a3.053,3.053,0,0,1-3.965-3.007l.912-29.326,12.256,4.7c-1.048.725.1,2.5.1,2.5S940.573,565.42,941.717,566.8Z" transform="translate(-412.074 -251.927)" fill="#fff"/>
    <path id="Tracé_421" data-name="Tracé 421" d="M950.428,546.408s-.833,5.318-2.917,5.63-3.019,8.6-5.1,8.314-.7-7.714-.629-9.152-2.265-7.4-.521-8.75,7.295,0,7.295,0Z" transform="translate(-416.718 -245.482)" fill="#cf6f80"/>
    <path id="Tracé_422" data-name="Tracé 422" d="M953.163,471.529l3.925-7.929s1.569,6.043,1.569,9.271,2.186,3.545,2.186,3.545,2.4,2.832,1.133,4.9-1.767,7.187-1.767,7.187.414,9.792-1.461,11.146-2.294,4.587-2.294,4.587-3.438,6.145-3.33,7.606-4.791,11.355-4.791,11.355,2.4-12.3-11.565-17.608c0,0-.108-4.168.934-5.312s2.668-1.7,1.648-7.453-.295-12.692-.295-14.079,3.126-10.036,3.126-10.036Z" transform="translate(-415.048 -211.55)" opacity="0.1"/>
    <path id="Tracé_423" data-name="Tracé 423" d="M955.884,461.6l3.432,1.133s1.569,6.043,1.569,9.271,2.186,3.545,2.186,3.545,2.4,2.832,1.133,4.9-1.773,7.187-1.773,7.187.419,9.792-1.456,11.146-2.265,4.587-2.265,4.587-3.438,6.145-3.33,7.606-4.8,11.355-4.8,11.355,2.4-12.3-11.565-17.608c0,0-.1-4.168.94-5.312s2.668-1.7,1.648-7.453-.295-12.692-.295-14.079,3.126-10.036,3.126-10.036Z" transform="translate(-416.024 -210.682)" fill="#fff"/>
    <path id="Tracé_424" data-name="Tracé 424" d="M834.92,823.054s5.471-3.438,9.062-.94S834.92,823.054,834.92,823.054Z" transform="translate(-370.883 -366.624)" opacity="0.1"/>
    <path id="Tracé_425" data-name="Tracé 425" d="M910,805.677a11.075,11.075,0,0,1,8.909,3.755C922.975,813.809,910,805.677,910,805.677Z" transform="translate(-403.441 -359.877)" opacity="0.1"/>
    <g id="Groupe_75" data-name="Groupe 75" transform="translate(465.869 153.313)" opacity="0.1">
      <path id="Tracé_426" data-name="Tracé 426" d="M892.117,311.8a8.522,8.522,0,0,0-2.056,1.829,21.158,21.158,0,0,0-.725,2.265c-.317.731-1.24,1.337-1.886.872-.147-5.1-2.656-9.883-5.743-13.961a14.48,14.48,0,0,0-3.109-3.222,6.088,6.088,0,0,0-4.231-1.2c-1.7.232-3.194,1.388-4.91,1.535-2.265.187-4.3-1.382-6.547-1.456a6.389,6.389,0,0,0-4.8,2.231,13.119,13.119,0,0,0-2.577,4.774,28,28,0,0,0-1.438,8.246c-.034,1.58-.181,3.551-1.642,4.14a7.86,7.86,0,0,1,0,1.263c1.478-.566,1.625-2.566,1.659-4.151a28.008,28.008,0,0,1,1.439-8.246,13.114,13.114,0,0,1,2.577-4.774,6.411,6.411,0,0,1,4.8-2.237c2.265.079,4.3,1.648,6.547,1.456,1.7-.142,3.206-1.3,4.91-1.529a6.088,6.088,0,0,1,4.231,1.2,14.515,14.515,0,0,1,3.109,3.228c3.087,4.078,5.6,8.846,5.743,13.961.646.464,1.569-.147,1.886-.872a22,22,0,0,1,.725-2.265,8.4,8.4,0,0,1,2.056-1.829c1.767-1.523,2.209-4.089,2.141-6.417v-.215A7.447,7.447,0,0,1,892.117,311.8Z" transform="translate(-844.354 -293.203)"/>
      <path id="Tracé_427" data-name="Tracé 427" d="M844.1,314.846c-1.3-1.433-3.075-2.4-4.27-3.913a8.218,8.218,0,0,1-1.648-4.633,8.728,8.728,0,0,0,1.648,5.884c1.195,1.518,2.973,2.475,4.27,3.908a8.5,8.5,0,0,1,2.141,5.052A8.5,8.5,0,0,0,844.1,314.846Z" transform="translate(-838.155 -296.649)"/>
      <path id="Tracé_428" data-name="Tracé 428" d="M927.174,290.353c-.334,1.388-.929,2.707-1.2,4.106a13.109,13.109,0,0,0-.175,2.866,10.991,10.991,0,0,1,.175-1.614c.272-1.4.867-2.719,1.2-4.106a7.113,7.113,0,0,0,.187-2.345,7.89,7.89,0,0,1-.187,1.093Z" transform="translate(-876.155 -289.26)"/>
    </g>
    <ellipse id="Ellipse_41" data-name="Ellipse 41" cx="55.185" cy="8.863" rx="55.185" ry="8.863" transform="translate(20.199 457.375)" fill="#1078ad" opacity="0.1"/>
    <rect id="Rectangle_110" data-name="Rectangle 110" width="3.551" height="79.952" transform="translate(73.612 296.441)" fill="#535461"/>
    <path id="Tracé_429" data-name="Tracé 429" d="M154.325,678.576l-.227,3.6-.312,5.1-.13,2.118-.317,5.1-.136,2.118-.312,5.1-3.585,57.808a9.787,9.787,0,0,1-9.77,9.186H120.921a9.781,9.781,0,0,1-9.77-9.226l-3.585-57.808-.311-5.1-.13-2.118-.323-5.1-.13-2.118-.311-5.1-.227-3.6a5.1,5.1,0,0,1,5.063-5.386h38.07a5.1,5.1,0,0,1,5.057,5.426Z" transform="translate(-54.842 -302.421)" fill="#3f3d56"/>
    <path id="Tracé_430" data-name="Tracé 430" d="M138.323,670.52l-.317,5.086H90.9l-.317-5.086Z" transform="translate(-39.067 -290.769)" fill="#9d9cb5"/>
    <path id="Tracé_431" data-name="Tracé 431" d="M138.219,683.24l-.311,5.086H91.687l-.317-5.086Z" transform="translate(-39.41 -296.285)" fill="#9d9cb5"/>
    <path id="Tracé_432" data-name="Tracé 432" d="M138.114,695.97l-.311,5.08H92.477l-.317-5.08Z" transform="translate(-39.753 -301.805)" fill="#9d9cb5"/>
    <path id="Tracé_433" data-name="Tracé 433" d="M62.065,582.8c20.683,14.963,29.3,38.365,29.3,38.365s-24.919-.855-45.608-15.818S16.44,567,16.44,567,41.359,567.838,62.065,582.8Z" transform="translate(-15.95 -256.389)" fill="#1078ad"/>
    <path id="Tracé_434" data-name="Tracé 434" d="M16.44,567S42.305,581.357,50.6,593.245,91.34,621.177,91.34,621.177" transform="translate(-15.95 -256.389)" fill="none" stroke="#535461" stroke-miterlimit="10" stroke-width="2"/>
    <path id="Tracé_435" data-name="Tracé 435" d="M101.523,535.089c11.259,8.138,15.948,20.876,15.948,20.876s-13.592-.464-24.823-8.6S76.7,526.48,76.7,526.48,90.27,526.944,101.523,535.089Z" transform="translate(-42.082 -238.818)" fill="#1078ad"/>
    <path id="Tracé_436" data-name="Tracé 436" d="M76.7,526.48s14.079,7.816,18.6,14.283,22.173,15.2,22.173,15.2" transform="translate(-42.082 -238.818)" fill="none" stroke="#535461" stroke-miterlimit="10" stroke-width="2"/>
    <path id="Tracé_437" data-name="Tracé 437" d="M165.575,563.09c-12.93,14.21-15.665,32.781-15.665,32.781s18.231-4.474,31.149-18.69,15.665-32.78,15.665-32.78S178.505,548.88,165.575,563.09Z" transform="translate(-73.829 -246.589)" fill="#1078ad"/>
    <path id="Tracé_438" data-name="Tracé 438" d="M196.736,544.41s-16.843,14.567-21.125,24.6-25.7,26.862-25.7,26.862" transform="translate(-73.829 -246.593)" fill="none" stroke="#535461" stroke-miterlimit="10" stroke-width="2"/>
  </g>
</svg>
