<svg xmlns="http://www.w3.org/2000/svg" width="107.212" height="37.112" viewBox="0 0 107.212 37.112">
  <g id="language_switch" transform="translate(0 -6.185)">
    <path id="Icon_material-language" data-name="Icon material-language" d="M13.374,3A10.588,10.588,0,0,0,3,13.789,10.588,10.588,0,0,0,13.374,24.579a10.6,10.6,0,0,0,10.4-10.789A10.6,10.6,0,0,0,13.374,3Zm7.2,6.474H17.507a17.286,17.286,0,0,0-1.433-3.841A8.418,8.418,0,0,1,20.571,9.474ZM13.385,5.2a15.458,15.458,0,0,1,1.983,4.273H11.4A15.458,15.458,0,0,1,13.385,5.2ZM5.347,15.947a8.758,8.758,0,0,1,0-4.316h3.51a18.5,18.5,0,0,0-.145,2.158,18.5,18.5,0,0,0,.145,2.158ZM6.2,18.105H9.262A17.286,17.286,0,0,0,10.7,21.946,8.373,8.373,0,0,1,6.2,18.105ZM9.262,9.474H6.2a8.373,8.373,0,0,1,4.5-3.841A17.286,17.286,0,0,0,9.262,9.474Zm4.123,12.9A15.458,15.458,0,0,1,11.4,18.105h3.967A15.458,15.458,0,0,1,13.385,22.378Zm2.43-6.43h-4.86a16.48,16.48,0,0,1-.166-2.158,16.336,16.336,0,0,1,.166-2.158h4.86a16.336,16.336,0,0,1,.166,2.158A16.479,16.479,0,0,1,15.815,15.947Zm.26,6a17.286,17.286,0,0,0,1.433-3.841h3.063A8.418,8.418,0,0,1,16.074,21.946Zm1.838-6a18.5,18.5,0,0,0,.145-2.158,18.5,18.5,0,0,0-.145-2.158h3.51a8.758,8.758,0,0,1,0,4.316Z" transform="translate(75.627 10.564)" fill="#f4cf1b"/>
    <text id="FRAN" transform="translate(13.95 32)" font-size="19" font-family="Cairo-SemiBold, Cairo" font-weight="600"><tspan x="0" y="0">FRAN</tspan></text>
    <g id="Tracé_439" data-name="Tracé 439" transform="translate(0 6.185)" fill="none">
      <path d="M10.309,0H96.9a10.309,10.309,0,0,1,10.309,10.309V26.8A10.309,10.309,0,0,1,96.9,37.112H10.309A10.309,10.309,0,0,1,0,26.8V10.309A10.309,10.309,0,0,1,10.309,0Z" stroke="none"/>
      <path d="M 10.30880737304688 0.9999923706054688 C 5.175910949707031 0.9999923706054688 0.9999923706054688 5.175909042358398 0.9999923706054688 10.30880737304688 L 0.9999923706054688 26.80289459228516 C 0.9999923706054688 31.93579483032227 5.175910949707031 36.11170959472656 10.30880737304688 36.11170959472656 L 96.90277862548828 36.11170959472656 C 102.0356674194336 36.11170959472656 106.2115783691406 31.93579483032227 106.2115783691406 26.80289459228516 L 106.2115783691406 10.30880737304688 C 106.2115783691406 5.175909042358398 102.0356674194336 0.9999923706054688 96.90277862548828 0.9999923706054688 L 10.30880737304688 0.9999923706054688 M 10.30880737304688 -7.62939453125e-06 L 96.90277862548828 -7.62939453125e-06 C 102.5961761474609 -7.62939453125e-06 107.2115783691406 4.615409851074219 107.2115783691406 10.30880737304688 L 107.2115783691406 26.80289459228516 C 107.2115783691406 32.49629211425781 102.5961761474609 37.11170959472656 96.90277862548828 37.11170959472656 L 10.30880737304688 37.11170959472656 C 4.615409851074219 37.11170959472656 -7.62939453125e-06 32.49629211425781 -7.62939453125e-06 26.80289459228516 L -7.62939453125e-06 10.30880737304688 C -7.62939453125e-06 4.615409851074219 4.615409851074219 -7.62939453125e-06 10.30880737304688 -7.62939453125e-06 Z" stroke="none" fill="#1078ad"/>
    </g>
  </g>
</svg>
