<svg xmlns="http://www.w3.org/2000/svg" xmlns:xlink="http://www.w3.org/1999/xlink" width="763.138" height="331.684" viewBox="0 0 763.138 331.684">
  <defs>
    <linearGradient id="linear-gradient" x1="0.5" y1="1" x2="0.5" gradientUnits="objectBoundingBox">
      <stop offset="0" stop-color="gray" stop-opacity="0.251"/>
      <stop offset="0.54" stop-color="gray" stop-opacity="0.122"/>
      <stop offset="1" stop-color="gray" stop-opacity="0.102"/>
    </linearGradient>
    <linearGradient id="linear-gradient-2" x1="0.5" y1="1" x2="0.5" y2="0" xlink:href="#linear-gradient"/>
  </defs>
  <g id="Groupe_137" data-name="Groupe 137" transform="translate(-160.786 -182.452)">
    <g id="Groupe_135" data-name="Groupe 135" transform="translate(161 204.742)">
      <ellipse id="Ellipse_276" data-name="Ellipse 276" cx="276.968" cy="18.336" rx="276.968" ry="18.336" transform="translate(6.901 188.184)" fill="#f2f2f2"/>
      <path id="Tracé_746" data-name="Tracé 746" d="M513.354,324.894c-45.126,0-77.525,28.951-77.525,96.5,0,76.56,32.4,96.826,77.525,96.826s79.456-22.2,79.456-96.826C592.81,341.622,558.48,324.894,513.354,324.894Zm.3,167.918c-31.255,0-47.584-18.337-47.584-71.364,0-46.789,17-71.463,48.252-71.463s48.252,16.207,48.252,71.463c0,51.691-17.666,71.364-48.921,71.364Z" transform="translate(-240.101 -319.104)" fill="#2f2e41"/>
      <path id="Tracé_747" data-name="Tracé 747" d="M257.79,471.7H239.132V416.756a11,11,0,0,0-11-11h-4.372a11,11,0,0,0-11,11V471.7H160.128a6.281,6.281,0,0,1-5.554-9.216l55.7-105.421a11,11,0,0,0-5.03-15.09l-3.288-1.553a11,11,0,0,0-14.4,4.762L119.62,472.261a14.92,14.92,0,0,0-1.762,7.034h0a14.92,14.92,0,0,0,14.92,14.92h79.976v34.742a13.189,13.189,0,0,0,13.189,13.189h0a13.189,13.189,0,0,0,13.189-13.189V494.215H257.79a11.259,11.259,0,0,0,11.259-11.259h0A11.259,11.259,0,0,0,257.79,471.7Z" transform="translate(-89.083 -325.975)" fill="#1078ad"/>
      <path id="Tracé_748" data-name="Tracé 748" d="M915.786,471.7H897.128V416.756a11,11,0,0,0-11-11h-4.372a11,11,0,0,0-11,11V471.7H818.124a6.281,6.281,0,0,1-5.554-9.216l55.7-105.421a11,11,0,0,0-5.03-15.09l-3.288-1.553a11,11,0,0,0-14.4,4.762L777.617,472.261a14.92,14.92,0,0,0-1.762,7.034h0a14.92,14.92,0,0,0,14.92,14.92h79.976v34.742a13.189,13.189,0,0,0,13.189,13.189h0a13.189,13.189,0,0,0,13.189-13.189V494.215h18.658a11.259,11.259,0,0,0,11.259-11.259h0A11.259,11.259,0,0,0,915.786,471.7Z" transform="translate(-401.593 -325.975)" fill="#1078ad"/>
      <path id="Tracé_749" data-name="Tracé 749" d="M267.593,459.444H248.935V404.5a11,11,0,0,0-11-11H233.56a11,11,0,0,0-11,11v54.941H169.93a6.281,6.281,0,0,1-5.554-9.216l55.7-105.421a11,11,0,0,0-5.03-15.09l-3.288-1.553a11,11,0,0,0-14.4,4.762L129.423,460.008a14.92,14.92,0,0,0-1.762,7.034h0a14.92,14.92,0,0,0,14.92,14.92h79.976V516.7a13.189,13.189,0,0,0,13.189,13.189h0A13.189,13.189,0,0,0,248.935,516.7V481.962h18.658A11.259,11.259,0,0,0,278.851,470.7h0a11.259,11.259,0,0,0-11.258-11.259Z" transform="translate(-93.739 -320.156)" fill="none" stroke="#3f3d56" stroke-miterlimit="10" stroke-width="1"/>
      <path id="Tracé_750" data-name="Tracé 750" d="M934.165,459.444H915.508V404.5a11,11,0,0,0-11-11h-4.371a11,11,0,0,0-11,11v54.942H836.5a6.281,6.281,0,0,1-5.554-9.216l55.7-105.421a11,11,0,0,0-5.03-15.09l-3.288-1.553a11,11,0,0,0-14.4,4.762L796,460.008a14.921,14.921,0,0,0-1.762,7.034h0a14.92,14.92,0,0,0,14.92,14.92H889.13V516.7a13.189,13.189,0,0,0,13.189,13.189h0A13.189,13.189,0,0,0,915.508,516.7V481.962h18.658A11.259,11.259,0,0,0,945.425,470.7h0a11.259,11.259,0,0,0-11.259-11.259Z" transform="translate(-410.322 -320.156)" fill="none" stroke="#3f3d56" stroke-miterlimit="10" stroke-width="1"/>
      <path id="Tracé_751" data-name="Tracé 751" d="M532.959,313.866c-45.126,0-77.525,28.951-77.525,96.5,0,76.56,32.4,96.827,77.525,96.827s79.455-22.2,79.455-96.827C612.415,330.594,578.085,313.866,532.959,313.866Zm.3,167.918c-31.255,0-47.584-18.337-47.584-71.364,0-46.789,17-71.463,48.252-71.463s48.252,16.207,48.252,71.463c0,51.691-17.666,71.364-48.921,71.364Z" transform="translate(-249.412 -313.866)" fill="none" stroke="#3f3d56" stroke-miterlimit="10" stroke-width="1"/>
      <path id="Tracé_753" data-name="Tracé 753" d="M613.29,335.893c-.408,1.677-2.167,3.02-4.116,3.958-4.1,1.973-9.149,2.561-14.05,2.759a23.72,23.72,0,0,1-3.751-.069,10.782,10.782,0,0,1-6.432-2.957.883.883,0,0,1,.023-1.493c2.609-2.866,6.963-4.624,11.35-5.889,3.326-.96,9.126-3.445,12.754-3.109C612.58,329.417,613.8,333.776,613.29,335.893Z" transform="translate(-310.73 -321.083)" fill="#3f3d56"/>
      <path id="Tracé_767" data-name="Tracé 767" d="M1063.409,558.259a10.928,10.928,0,1,0,1.456-20.958l.273,5.625-2.661-4.82a10.886,10.886,0,0,0-5.609,6.155,10.716,10.716,0,0,0-.629,2.956A10.926,10.926,0,0,0,1063.409,558.259Z" transform="translate(-534.746 -419.87)" fill="#57b894"/>
      <path id="Tracé_768" data-name="Tracé 768" d="M1093.138,615c-.939-4.783,3.131-9.024,7.151-11.78s8.719-5.465,10.091-10.143c1.971-6.723-3.9-12.88-8.472-18.189a65.786,65.786,0,0,1-8.676-12.894,17.747,17.747,0,0,1-2.075-5.863c-.36-2.98.6-5.945,1.562-8.788q4.82-14.2,10.306-28.169" transform="translate(-551.307 -411.375)" fill="none" stroke="#3f3d56" stroke-miterlimit="10" stroke-width="1"/>
      <path id="Tracé_769" data-name="Tracé 769" d="M1064.259,555.5a10.928,10.928,0,1,0,1.455-20.958l.274,5.625-2.661-4.82a10.886,10.886,0,0,0-5.61,6.155,10.719,10.719,0,0,0-.629,2.956A10.926,10.926,0,0,0,1064.259,555.5Z" transform="translate(-535.15 -418.56)" fill="none" stroke="#3f3d56" stroke-miterlimit="10" stroke-width="1"/>
      <path id="Tracé_770" data-name="Tracé 770" d="M1091.856,508.962a10.915,10.915,0,0,1,7.865-6.93l.9,5.347,1.668-5.616a10.926,10.926,0,1,1-10.433,7.2Z" transform="translate(-551.364 -403.106)" fill="#57b894"/>
      <path id="Tracé_771" data-name="Tracé 771" d="M1093,505.284a10.915,10.915,0,0,1,7.865-6.929l.9,5.347,1.668-5.616a10.926,10.926,0,1,1-10.433,7.2Z" transform="translate(-551.906 -401.36)" fill="none" stroke="#3f3d56" stroke-miterlimit="10" stroke-width="1"/>
      <path id="Tracé_772" data-name="Tracé 772" d="M1101.524,606.311a10.926,10.926,0,0,0,9.671-19.439l-1.282,4.316-.909-5.41-.028-.01a10.927,10.927,0,0,0-7.452,20.544Z" transform="translate(-552.846 -442.691)" fill="#57b894"/>
      <path id="Tracé_773" data-name="Tracé 773" d="M1102.524,602.586a10.927,10.927,0,0,0,9.671-19.439l-1.282,4.316-.909-5.41-.028-.011a10.927,10.927,0,1,0-7.453,20.544Z" transform="translate(-553.321 -440.921)" fill="none" stroke="#3f3d56" stroke-miterlimit="10" stroke-width="1"/>
      <path id="Tracé_774" data-name="Tracé 774" d="M1086.228,648.461a10.922,10.922,0,1,0,2.106-8.557l4.869,7.328-6.652-3.889A10.826,10.826,0,0,0,1086.228,648.461Z" transform="translate(-548.923 -466.694)" fill="#57b894"/>
      <path id="Tracé_775" data-name="Tracé 775" d="M1087.078,645.7a10.922,10.922,0,1,0,2.106-8.557l4.869,7.328-6.652-3.889A10.823,10.823,0,0,0,1087.078,645.7Z" transform="translate(-549.327 -465.384)" fill="none" stroke="#3f3d56" stroke-miterlimit="10" stroke-width="1"/>
      <path id="Tracé_776" data-name="Tracé 776" d="M67.784,615.534a7.18,7.18,0,1,0,.956-13.77l.18,3.7-1.748-3.167a7.153,7.153,0,0,0-3.686,4.044,7.04,7.04,0,0,0-.413,1.942A7.178,7.178,0,0,0,67.784,615.534Z" transform="translate(-63.055 -450.526)" fill="#57b894"/>
      <path id="Tracé_777" data-name="Tracé 777" d="M87.314,652.813c-.617-3.143,2.057-5.929,4.7-7.74s5.728-3.59,6.63-6.664c1.3-4.417-2.563-8.462-5.566-11.95a43.22,43.22,0,0,1-5.7-8.471,11.662,11.662,0,0,1-1.363-3.852,13.3,13.3,0,0,1,1.026-5.774q3.167-9.332,6.771-18.508" transform="translate(-73.934 -444.944)" fill="none" stroke="#3f3d56" stroke-miterlimit="10" stroke-width="1"/>
      <path id="Tracé_778" data-name="Tracé 778" d="M68.347,613.722a7.18,7.18,0,1,0,.956-13.77l.18,3.7-1.748-3.167a7.152,7.152,0,0,0-3.686,4.044,7.041,7.041,0,0,0-.413,1.942A7.178,7.178,0,0,0,68.347,613.722Z" transform="translate(-63.322 -449.666)" fill="none" stroke="#3f3d56" stroke-miterlimit="10" stroke-width="1"/>
      <path id="Tracé_779" data-name="Tracé 779" d="M86.477,583.145a7.171,7.171,0,0,1,5.168-4.553l.591,3.513,1.1-3.69a7.179,7.179,0,1,1-6.855,4.729Z" transform="translate(-73.974 -439.512)" fill="#57b894"/>
      <path id="Tracé_780" data-name="Tracé 780" d="M87.228,580.729a7.172,7.172,0,0,1,5.168-4.553l.591,3.513,1.1-3.689a7.179,7.179,0,1,1-6.855,4.729Z" transform="translate(-74.331 -438.364)" fill="none" stroke="#3f3d56" stroke-miterlimit="10" stroke-width="1"/>
      <path id="Tracé_781" data-name="Tracé 781" d="M92.83,647.105a7.179,7.179,0,0,0,6.354-12.772l-.842,2.835-.6-3.555-.018-.007a7.179,7.179,0,0,0-4.9,13.5Z" transform="translate(-74.948 -465.519)" fill="#57b894"/>
      <path id="Tracé_782" data-name="Tracé 782" d="M93.481,644.658a7.179,7.179,0,0,0,6.354-12.772l-.842,2.835-.6-3.555-.018-.007a7.179,7.179,0,1,0-4.9,13.5Z" transform="translate(-75.257 -464.357)" fill="none" stroke="#3f3d56" stroke-miterlimit="10" stroke-width="1"/>
      <path id="Tracé_783" data-name="Tracé 783" d="M82.776,674.8a7.176,7.176,0,1,0,1.384-5.622l3.2,4.815-4.371-2.555a7.112,7.112,0,0,0-.212,3.363Z" transform="translate(-72.369 -481.29)" fill="#57b894"/>
      <path id="Tracé_784" data-name="Tracé 784" d="M83.339,672.987a7.176,7.176,0,1,0,1.384-5.622l3.2,4.815-4.371-2.556A7.112,7.112,0,0,0,83.339,672.987Z" transform="translate(-72.636 -480.429)" fill="none" stroke="#3f3d56" stroke-miterlimit="10" stroke-width="1"/>
      <circle id="Ellipse_286" data-name="Ellipse 286" cx="2.625" cy="2.625" r="2.625" transform="translate(251.999 77.254)" fill="#fff"/>
      <circle id="Ellipse_287" data-name="Ellipse 287" cx="2.625" cy="2.625" r="2.625" transform="translate(300.83 77.254)" fill="#fff"/>
    </g>
    <g id="Groupe_136" data-name="Groupe 136" transform="translate(463.649 182.452)">
      <path id="Tracé_787" data-name="Tracé 787" d="M324.368,127.627c-29.508-1.026-57.634-10.552-84.45-20.973s-53.4-21.969-82.213-27.49c-18.528-3.555-39.716-4.056-54.642,5.878C88.7,94.6,84.057,111.1,81.561,126.4c-1.877,11.518-2.966,23.638,2.166,34.423,3.572,7.484,9.912,13.777,14.3,20.947,15.256,24.948,4.471,55.714-12.065,80.094-7.755,11.442-16.752,22.329-22.736,34.5s-8.755,26.1-3.517,38.513c5.191,12.29,17.557,21.536,30.957,28.033,27.215,13.184,59.282,16.955,90.553,19.117,69.22,4.734,138.813,2.683,208.215.631,25.685-.763,51.485-1.53,76.75-5.509,14.031-2.208,28.52-5.708,38.708-14.158,12.929-10.73,16.137-28.893,7.471-42.348-14.536-22.562-54.722-28.168-64.885-52.383-5.59-13.328.153-28.177,8.281-40.539,17.43-26.516,46.654-49.781,48.192-80.094,1.059-20.82-12.989-41.666-34.712-51.519-22.765-10.336-54.337-9.031-71.131,8.052C380.811,121.758,350.418,128.53,324.368,127.627Z" transform="translate(-56.939 -69.139)" fill="#1078ad" opacity="0.1"/>
      <path id="Tracé_789" data-name="Tracé 789" d="M153.827,575.575c2.043,2.763,2.966,14.472,2.966,14.472s-10.921-4.3-12.968-7.06a6.224,6.224,0,0,1,10-7.412Z" transform="translate(-106.3 -355.073)" fill="#1078ad"/>
      <path id="Tracé_790" data-name="Tracé 790" d="M198.4,592.751c.212,3.428-5.369,13.76-5.369,13.76s-6.836-9.552-7.052-12.98a6.221,6.221,0,1,1,12.417-.78Z" transform="translate(-131.29 -363.061)" fill="#1078ad"/>
      <path id="Tracé_791" data-name="Tracé 791" d="M243.869,650.736c-1.543,3.068-11.582,9.171-11.582,9.171s-1.072-11.7.47-14.764a6.221,6.221,0,1,1,11.112,5.594Z" transform="translate(-157.769 -394.637)" fill="#1078ad"/>
      <path id="Tracé_792" data-name="Tracé 792" d="M266.943,706.823c-1,3.284-9.866,10.993-9.866,10.993s-3.038-11.345-2.034-14.633a6.222,6.222,0,0,1,11.9,3.64Z" transform="translate(-170.974 -427.517)" fill="#1078ad"/>
      <path id="Tracé_793" data-name="Tracé 793" d="M171.466,635.906c3.39.458,14.108-4.382,14.108-4.382s-9.043-7.492-12.451-7.95a6.221,6.221,0,1,0-1.657,12.332Z" transform="translate(-119.824 -384.15)" fill="#1078ad"/>
      <path id="Tracé_794" data-name="Tracé 794" d="M196.961,699.719c3.39-.581,12.15-8.4,12.15-8.4s-10.874-4.441-14.26-3.861a6.221,6.221,0,1,0,2.119,12.26Z" transform="translate(-133.432 -420.964)" fill="#1078ad"/>
      <path id="Tracé_796" data-name="Tracé 796" d="M833.49,340.477s14.366-25.448,36.021-32.779a44.3,44.3,0,0,0,22.426-16.777A74.3,74.3,0,0,0,898.544,279" transform="translate(-504.405 -185.631)" fill="none" stroke="#535461" stroke-miterlimit="10" stroke-width="2"/>
      <path id="Tracé_797" data-name="Tracé 797" d="M1000.117,253.471c-2.466,2.39-13.946,4.865-13.946,4.865s2.818-11.4,5.284-13.794a6.221,6.221,0,1,1,8.663,8.93Z" transform="translate(-592.383 -164.763)" fill="#1078ad"/>
      <path id="Tracé_798" data-name="Tracé 798" d="M984.243,299.839c-3.39.67-14.353-3.492-14.353-3.492s8.56-8.052,11.929-8.709a6.221,6.221,0,1,1,2.424,12.2Z" transform="translate(-583.002 -190.524)" fill="#1078ad"/>
      <path id="Tracé_799" data-name="Tracé 799" d="M933.554,352.945c-3.246-1.123-10.624-10.26-10.624-10.26s11.442-2.619,14.7-1.5a6.221,6.221,0,1,1-4.073,11.756Z" transform="translate(-555.942 -221.305)" fill="#1078ad"/>
      <path id="Tracé_800" data-name="Tracé 800" d="M880.188,382.889c-3.39-.559-12.188-8.336-12.188-8.336s10.844-4.517,14.231-3.958a6.227,6.227,0,0,1-2.021,12.29Z" transform="translate(-524.291 -238.382)" fill="#1078ad"/>
      <path id="Tracé_801" data-name="Tracé 801" d="M947.3,278.7c0,3.437,6.23,13.408,6.23,13.408s6.225-9.959,6.225-13.391a6.221,6.221,0,1,0-12.438,0Z" transform="translate(-569.985 -181.791)" fill="#1078ad"/>
      <path id="Tracé_802" data-name="Tracé 802" d="M887.578,312.92c1.025,3.28,9.942,10.929,9.942,10.929s2.966-11.366,1.932-14.646a6.221,6.221,0,0,0-11.866,3.716Z" transform="translate(-535.448 -200.643)" fill="#1078ad"/>
      <path id="Tracé_803" data-name="Tracé 803" d="M834.9,357c.458,3.39,7.95,12.446,7.95,12.446s4.835-10.7,4.378-14.1A6.221,6.221,0,1,0,834.9,357Z" transform="translate(-505.17 -226.432)" fill="#1078ad"/>
      <path id="Tracé_804" data-name="Tracé 804" d="M1000.117,253.471c-2.466,2.39-13.946,4.865-13.946,4.865s2.818-11.4,5.284-13.794a6.221,6.221,0,1,1,8.663,8.93Z" transform="translate(-592.383 -164.763)" opacity="0.25"/>
      <path id="Tracé_805" data-name="Tracé 805" d="M984.243,299.839c-3.39.67-14.353-3.492-14.353-3.492s8.56-8.052,11.929-8.709a6.221,6.221,0,1,1,2.424,12.2Z" transform="translate(-583.002 -190.524)" opacity="0.25"/>
      <path id="Tracé_806" data-name="Tracé 806" d="M933.554,352.945c-3.246-1.123-10.624-10.26-10.624-10.26s11.442-2.619,14.7-1.5a6.221,6.221,0,1,1-4.073,11.756Z" transform="translate(-555.942 -221.305)" opacity="0.25"/>
      <path id="Tracé_807" data-name="Tracé 807" d="M880.188,382.889c-3.39-.559-12.188-8.336-12.188-8.336s10.844-4.517,14.231-3.958a6.227,6.227,0,0,1-2.021,12.29Z" transform="translate(-524.291 -238.382)" opacity="0.25"/>
      <path id="Tracé_808" data-name="Tracé 808" d="M947.3,278.7c0,3.437,6.23,13.408,6.23,13.408s6.225-9.959,6.225-13.391a6.221,6.221,0,1,0-12.438,0Z" transform="translate(-569.985 -181.791)" opacity="0.25"/>
      <path id="Tracé_809" data-name="Tracé 809" d="M887.578,312.92c1.025,3.28,9.942,10.929,9.942,10.929s2.966-11.366,1.932-14.646a6.221,6.221,0,0,0-11.866,3.716Z" transform="translate(-535.448 -200.643)" opacity="0.25"/>
      <path id="Tracé_810" data-name="Tracé 810" d="M834.9,357c.458,3.39,7.95,12.446,7.95,12.446s4.835-10.7,4.378-14.1A6.221,6.221,0,1,0,834.9,357Z" transform="translate(-505.17 -226.432)" opacity="0.25"/>
      <path id="Tracé_811" data-name="Tracé 811" d="M835.44,310.643s2.822-29.088,19.629-44.556a44.315,44.315,0,0,0,13.7-24.427A74.277,74.277,0,0,0,870,228.1" transform="translate(-505.529 -156.301)" fill="none" stroke="#535461" stroke-miterlimit="10" stroke-width="2"/>
      <path id="Tracé_812" data-name="Tracé 812" d="M925.583,193.325c-1.271,3.187-10.781,10.1-10.781,10.1s-2.043-11.565-.759-14.752a6.223,6.223,0,0,1,11.539,4.662Z" transform="translate(-550.578 -131.341)" fill="#1078ad"/>
      <path id="Tracé_813" data-name="Tracé 813" d="M927.8,240.138c-2.81,1.975-14.536,2.623-14.536,2.623s4.568-10.823,7.378-12.8a6.221,6.221,0,1,1,7.158,10.171Z" transform="translate(-550.37 -156.66)" fill="#1078ad"/>
      <path id="Tracé_814" data-name="Tracé 814" d="M899.034,309.538c-3.424.288-13.874-5.085-13.874-5.085s9.408-7.035,12.832-7.323a6.222,6.222,0,0,1,1.042,12.4Z" transform="translate(-534.179 -196.065)" fill="#1078ad"/>
      <path id="Tracé_815" data-name="Tracé 815" d="M863.631,358.281c-3.327.848-14.531-2.657-14.531-2.657s8.081-8.522,11.408-9.387a6.221,6.221,0,1,1,3.123,12.044Z" transform="translate(-513.4 -224.259)" fill="#1078ad"/>
      <path id="Tracé_816" data-name="Tracé 816" d="M883.444,240.1c1.39,3.14,11.112,9.747,11.112,9.747s1.653-11.628.263-14.769a6.221,6.221,0,0,0-11.374,5.034Z" transform="translate(-532.915 -158.264)" fill="#1078ad"/>
      <path id="Tracé_817" data-name="Tracé 817" d="M842.347,294.96c2.267,2.581,13.514,5.963,13.514,5.963s-1.9-11.59-4.166-14.171a6.221,6.221,0,1,0-9.349,8.209Z" transform="translate(-508.617 -188.878)" fill="#1078ad"/>
      <path id="Tracé_818" data-name="Tracé 818" d="M812.464,357.247c1.8,2.924,12.311,8.158,12.311,8.158s.089-11.743-1.7-14.671a6.221,6.221,0,0,0-10.595,6.513Z" transform="translate(-491.825 -225.349)" fill="#1078ad"/>
      <path id="Tracé_819" data-name="Tracé 819" d="M784.44,143.479c.7-2.581,1.551-5.174,2.144-7.789C785.872,138.3,785.021,140.907,784.44,143.479Z" transform="translate(-476.141 -103.053)" fill="url(#linear-gradient)"/>
      <path id="Tracé_820" data-name="Tracé 820" d="M481.5,123.545a2.666,2.666,0,0,1-.284.114c-.186.072-.377.14-.572.195s-.275.085-.424.119a2.471,2.471,0,0,1-.377.1l.034.076c.157-.034.309-.064.466-.106l.042.525c.178,0,.343-.025.5-.025a2.08,2.08,0,0,1,.229,0h.848S481.518,123.587,481.5,123.545ZM567.736,260.9c-1.992-2.683-5.967-31.474-5.967-31.474s-7.819-20.473-5.687-28.643-5.823-29.075-5.823-29.075-5.255-2.284-5.539-5.674c0,0-21.456-6.78-22.46-11.866-.814-4.17-14.12-7.162-18.9-8.107-1.458-5.882-2.924-11.37-4-14.366-.292-.932-.568-1.737-.822-2.373-1.826-4.662-7.471-5.085-11.565-4.712a6.307,6.307,0,0,0-.97-2.216,1.216,1.216,0,0,0-.386-.589,2.251,2.251,0,0,0-.28-.2,1.338,1.338,0,0,0-.288-.364,2.04,2.04,0,0,0-.381-.271,2.545,2.545,0,0,0-.305-.14,4.074,4.074,0,0,0-.759-.208,6.248,6.248,0,0,0-.915-.119,5.573,5.573,0,0,0,1.954-1.428,4.074,4.074,0,0,0,.8-1.475,4.343,4.343,0,0,0,.178-1.39,3.6,3.6,0,0,1-.381.547c.178-1.877-.814-3.784-1.382-5.653a16.726,16.726,0,0,1-.373-7.48h0c.568-3.755,1.975-7.552,2.928-11.374a.28.28,0,0,0,0-.064,29.527,29.527,0,0,0,.924-5.8,25.6,25.6,0,0,0-2.475-11.5c-1.445-3.191-3.577-6.331-6.84-7.628-2.424-.979-5.14-.822-7.751-.983-5.857-.364-11.442-2.424-17.01-4.3s-11.3-3.577-17.159-3.25-11.891,3.153-14.565,8.34A52.209,52.209,0,0,1,419.185,72c-1.9,2.869-5.3,4.306-8.132,6.285a16.082,16.082,0,0,0-6.357,8.141,10.861,10.861,0,0,0-.229,5.573h0a9.973,9.973,0,0,0,.356,1.229,8.709,8.709,0,0,0,1.843,3.013,8.989,8.989,0,0,0,2.093,1.623h0a12.32,12.32,0,0,0,3.094,1.2c-.038.127-.076.263-.119.394-.068.216-.127.424-.191.657-.14.521-.271,1.051-.381,1.585a.5.5,0,0,0,0,.114,34.609,34.609,0,0,0-.78,7.336,33.845,33.845,0,0,0,.178,3.492h0a35.323,35.323,0,0,0,33.432,31.643c.6.03,1.208.047,1.822.047h.848c.275.364.547.737.805,1.1s.5.737.72,1.1l-.614-.636h0l-.615-.564a4.992,4.992,0,0,1-.555.64,10.305,10.305,0,0,0-1.225-.348h0a15.7,15.7,0,0,0-7.963.53,34.827,34.827,0,0,0-11.84,6.759l-22.592,13.561-12.222,7.433-4.4,10.764s-3.31,12.79-6.992,27.444c-.144.042-.284.085-.424.136a7.922,7.922,0,0,0-.9-.051,8.259,8.259,0,0,0-8.272,7.929c-7.323,8.9-7.738,17.8-6.018,21.884h0a5.832,5.832,0,0,0,.585,1.089A102.87,102.87,0,0,1,369.51,253.4c-.055.369-.089.678-.106.911a2.263,2.263,0,0,0,0,.229s1.271,19.2-2.966,24.706c-.928,1.2-.788,2.776,0,4.522h0c2.839,6.28,14.065,14.667,14.065,14.667s13.463-.072,20.964-.89c-.021.754-.038,1.5-.055,2.238-.17,7.408-.17,13.616-.17,13.616l-.28,7.768s-2.543,16.371-3.814,20.884c-.8,2.831.123,29.042.928,48.311H530.727c1.56-11.4-.64-46.035-.64-46.035a91,91,0,0,1-2.165-16.76.064.064,0,0,1,0-.055c0-.682,0-1.348.025-2l.962-.034,1.729-.059h.157s.042-.161.14-.424h0a8.1,8.1,0,0,1,.928-1.852,4.594,4.594,0,0,1,3.623-2.229,9.814,9.814,0,0,0,4.115-1.958.075.075,0,0,0,.034,0c4.5-3.047,10.459-8.67,11.9-9.594,1.988-1.271,11.506-9.747,11.506-9.747s1.42-1.8,2.933-3.962l.055-.076c1.882-2.712,3.882-5.954,3.39-6.975-.848-1.831.568-6.208.568-6.208C574.41,274.3,569.728,263.578,567.736,260.9ZM485.79,130.55a1.693,1.693,0,0,1,.076.39c-.106-.14-.212-.288-.318-.424l-.1-.136-.072-.1.161-.22v.03h0A1.469,1.469,0,0,1,485.79,130.55Zm-1.424-3.755c-.462.093-.826.178-1.064.242-.3-.534-.589-1.068-.848-1.61a12.291,12.291,0,0,1,1.911,1.369Zm-.8.67a.089.089,0,0,1,0-.025l.034.025h0c.174.114.343.225.5.339h0c.14.1.267.2.394.3a4.042,4.042,0,0,1-.271.424c-.148-.233-.288-.458-.424-.691A1.526,1.526,0,0,1,483.569,127.465Zm-2.543-5.229a12.539,12.539,0,0,1,2.462,0h0a1.863,1.863,0,0,1,.318.038h0a3.521,3.521,0,0,1,.674.174,4.924,4.924,0,0,1,.894,2.377l-.229.034-.225.042c-.424.072-.848.144-1.178.212l-.424.089c-.564.123-.89.216-.9.22-.055-.114-.11-.22-.17-.331-.093-.182-.191-.369-.275-.551s-.195-.39-.284-.581c-.059-.1-.1-.2-.148-.3h0c0-.042-.042-.076-.059-.119a1.014,1.014,0,0,1-.064-.14c-.259-.525-.5-1.051-.725-1.568-.025-.051-.047-.106-.068-.157l.322-.021v.11ZM266.146,386.719s-.7,1.454-1.606,3.619C382.647,388.643,266.146,386.719,266.146,386.719ZM481.709,123.96c-.059-.1-.1-.2-.148-.3h0c0-.042-.042-.076-.059-.119a2.666,2.666,0,0,1-.284.114c-.186.072-.377.14-.572.195s-.275.085-.424.119l-.377.1.034.076c.157-.034.309-.064.466-.106l.042.525c.178,0,.343-.025.5-.025h1.076C481.878,124.35,481.785,124.151,481.709,123.96Z" transform="translate(-176.563 -58.675)" fill="url(#linear-gradient-2)"/>
      <path id="Tracé_821" data-name="Tracé 821" d="M532.507,356.545l-2.543,1.123S513.39,422.056,513.39,427.26s35.144,34.161,35.144,34.161l5.484-37.013S546.144,339.53,532.507,356.545Z" transform="translate(-319.956 -229.015)" fill="#e8f5ff"/>
      <path id="Tracé_822" data-name="Tracé 822" d="M701.389,242.721l-14.684-7.662a29.414,29.414,0,0,0-4.306-9.81c-2.149-3.1-5-6.149-8.564-7.738-9-4.034,38.055-25.211,38.055-25.211a76.579,76.579,0,0,0,2.615,7.5c2.424,5.984,6.446,13.722,11.628,15.926C734.944,219.477,701.389,242.721,701.389,242.721Z" transform="translate(-411.75 -135.673)" fill="#ffc1c7"/>
      <path id="Tracé_823" data-name="Tracé 823" d="M714.505,199.8A35.081,35.081,0,0,1,682.4,225.249c-2.149-3.1-5-6.149-8.565-7.738-9-4.034,38.055-25.211,38.055-25.211a76.543,76.543,0,0,0,2.615,7.5Z" transform="translate(-411.75 -135.673)" opacity="0.1"/>
      <path id="Tracé_824" data-name="Tracé 824" d="M679.138,137.11a34.894,34.894,0,1,1-10.221-24.832A35.061,35.061,0,0,1,679.138,137.11Z" transform="translate(-375.06 -83.674)" fill="#ffc1c7"/>
      <path id="Tracé_825" data-name="Tracé 825" d="M657.6,233.334l-9.56,22.308-8.433,14.807H612.614L604.74,250.2l3.191-20.994h20.617l13.311-.75,4.5-1.5,2.9,1.644Z" transform="translate(-348.464 -130.786)" fill="#575a89"/>
      <path id="Tracé_826" data-name="Tracé 826" d="M747.188,230.468s5.963,1.271.623,5.649-23.761,18.3-23.761,18.3,6.471,5.763,5.132,12.514l21.439-11.951,3.814-19.121S754.863,230.112,747.188,230.468Z" transform="translate(-441.343 -157.657)" opacity="0.1"/>
      <path id="Tracé_827" data-name="Tracé 827" d="M709.66,287l-13.637,2.25s2.814,10.4,1.407,13.357a1.965,1.965,0,0,0-.106.284l-5.564,15.04,4.17,11.811,14.434-19.684-4.92-7.45s5.2-6.891,8.293-9.281S709.66,287,709.66,287Z" transform="translate(-422.737 -190.241)" opacity="0.1"/>
      <path id="Tracé_828" data-name="Tracé 828" d="M709.66,285.63l-13.637,2.246s2.814,10.4,1.407,13.357a1.968,1.968,0,0,0-.106.284l-5.564,15.04,4.17,11.811,14.434-19.7-4.92-7.45s5.2-6.891,8.293-9.281S709.66,285.63,709.66,285.63Z" transform="translate(-422.737 -189.451)" fill="#dce6f2"/>
      <path id="Tracé_829" data-name="Tracé 829" d="M747.76,227.818s5.962,1.271.619,5.649-24.329,19.422-24.329,19.422,7.031,4.64,5.7,11.387l21.439-11.946L755,233.209S755.422,227.462,747.76,227.818Z" transform="translate(-441.343 -156.13)" fill="#575a89"/>
      <path id="Tracé_830" data-name="Tracé 830" d="M676.415,273.18s1.3,2.432,7.043,6.819c0,0-9.56,5.085-5.9,12.234l-14.625-3.814-2.25-7.03Z" transform="translate(-404.828 -182.277)" opacity="0.1"/>
      <path id="Tracé_831" data-name="Tracé 831" d="M675.091,271.86s1.3,2.432,7.043,6.819c0,0-9.56,5.06-5.9,12.23l-14.62-3.814-2.25-7.026Z" transform="translate(-404.067 -181.517)" fill="#575a89"/>
      <path id="Tracé_832" data-name="Tracé 832" d="M714.542,294.229l-9.56,22.308-8.416,14.807H669.554L661.68,311.1l3.187-20.994H670.6c-.093,4.9,1.7,10.654,1.581,12.794-.195,3.517,5.246,22.494,5.246,22.494s11.387-18.417,15.883-20.057c2.827-1.03,8.815-9.6,12.879-15.837Z" transform="translate(-405.404 -191.681)" opacity="0.1"/>
      <path id="Tracé_833" data-name="Tracé 833" d="M689.331,400.233l-.97,1.221s7.031,35.288,5.085,43.3a22.755,22.755,0,0,0-.564,4.4v.064c-.343,8.154,2.119,18.735,2.119,18.735s1.966,31.19.848,44.018H564.215c-.771-18.968-1.6-43.543-.847-46.268,1.271-4.5,3.814-20.807,3.814-20.807l.28-7.73s0-7.471.229-15.794c.1-3.742.242-7.67.449-11.154a58.9,58.9,0,0,1,1.153-9.887,21.794,21.794,0,0,0,.543-4.187,2.152,2.152,0,0,1,.025-.4c0-.424.042-.881.059-1.352v-.424c.081-2.729.051-5.967-.038-9.323v-.555c-.072-2.517-.178-5.085-.3-7.526-.369-7.628-.848-14.078-.848-14.078L552.57,308.918l4.356-10.73,12.09-7.408,22.354-13.5c10.9-8.963,18.083-7.887,20.82-6.9a7.237,7.237,0,0,1,.78.318c.085.042.153.076.216.114a1.79,1.79,0,0,1,.25.144h0a5.162,5.162,0,0,0-1.9,1.564,6.918,6.918,0,0,0-1.174,2.543,11.841,11.841,0,0,0-.3,1.733c-.055.615-.076,1.25-.076,1.89a32.784,32.784,0,0,0,.36,4.191c0,.025,0,.059,0,.093.14.992.313,1.962.483,2.873a.2.2,0,0,0,0,.047c.2,1.064.39,2.047.521,2.894.025.153.047.292.068.424a9.692,9.692,0,0,1,.131,1.7,20.6,20.6,0,0,0,.551,4.068c.11.559.237,1.157.377,1.78.191.848.4,1.771.623,2.712.123.517.254,1.051.39,1.581.051.212.106.424.157.64l.085.335c.9,3.589,1.882,7.162,2.483,9.323.356,1.271.581,2.055.581,2.055s6.382-10.319,11.476-16.193c.076-.085.144-.165.216-.242.5-.581,1-1.11,1.475-1.576a8.711,8.711,0,0,1,2.721-2.043,2.964,2.964,0,0,0,.462-.216c2.085-1.182,5.45-5.475,8.6-9.971.309-.424.61-.886.915-1.322.7-1.009,1.377-2.021,2.017-2.992.492-.742.962-1.462,1.407-2.149,2.119-3.3,3.611-5.755,3.611-5.755l2.941-.131.513-.025h.343l13.353-.619s.576.1,1.526.288a.271.271,0,0,1,.157.034c4.738.941,17.9,3.92,18.706,8.052.983,5.06,22.214,11.811,22.214,11.811.28,3.39,5.479,5.624,5.479,5.624s7.874,20.807,5.768,28.961c-2.081,8.052,5.416,27.969,5.615,28.529h0l-1.437,1.814Z" transform="translate(-342.533 -180.295)" fill="#e8f5ff"/>
      <path id="Tracé_834" data-name="Tracé 834" d="M754.375,225.783s13-3.687,15.951,3.9,9.56,38.242,9.56,38.242-17.154,3.233-21.651,0a12.955,12.955,0,0,0-9.141-2.39l-9.7,6.607-2.865-.848s15.519-23.07,18.892-30.91S759.935,229.042,754.375,225.783Z" transform="translate(-448.535 -154.45)" opacity="0.1"/>
      <path id="Tracé_835" data-name="Tracé 835" d="M753.068,221.783s13.006-3.687,15.972,3.9,9.56,38.242,9.56,38.242-17.15,3.233-21.651,0a12.942,12.942,0,0,0-9.137-2.39l-9.709,6.607-2.865-.848s15.519-23.07,18.892-30.91S758.628,225.05,753.068,221.783Z" transform="translate(-447.791 -152.145)" fill="#e8f5ff"/>
      <path id="Tracé_836" data-name="Tracé 836" d="M571.234,511.55s9.7,2.39,11.531,7.874-7.17,5.624-7.17,5.624S570.111,515.347,571.234,511.55Z" transform="translate(-353.2 -319.632)" opacity="0.1"/>
      <path id="Tracé_837" data-name="Tracé 837" d="M630.736,607.09s-23.757,48.646-18.273,53.286S630.736,607.09,630.736,607.09Z" transform="translate(-376.571 -374.684)" opacity="0.1"/>
      <path id="Tracé_838" data-name="Tracé 838" d="M734,522.5s18.981,47.251,15.184,54.549,8.153,0,8.153,0Z" transform="translate(-447.077 -325.941)" opacity="0.1"/>
      <path id="Tracé_839" data-name="Tracé 839" d="M729.979,632.64s-64.109,3.094-45.408,23.058,57.079.848,57.079.848Z" transform="translate(-416.624 -389.407)" fill="#ffc1c7"/>
      <path id="Tracé_840" data-name="Tracé 840" d="M680.734,137.116a34.9,34.9,0,0,1-2.657,13.4c-.589.068-1.178.11-1.746.136-.848-1.86-.394-4.009-.377-6.056s-.737-4.454-2.708-5c-3.928-1.106-6.641,6.238-10.514,4.912-2.966-1.009-2.191-5.509-3.9-8.107-1.352-2.055-4.06-2.636-6.166-3.924-4.479-2.75-4.344-7.149-6.424-11.311-2.178-4.361-6.78-3.072-10.777-.5-3.034,1.958-5.653,4.581-8.9,6.141a22.014,22.014,0,0,1-9.081,1.92,19.955,19.955,0,0,1-5.7-.6,35.059,35.059,0,0,1,68.94,9Z" transform="translate(-376.657 -83.68)" opacity="0.1"/>
      <path id="Tracé_841" data-name="Tracé 841" d="M625.621,98.814c-3.038,1.958-5.653,4.577-8.9,6.145a22.079,22.079,0,0,1-9.082,1.915c-3.814.085-7.92-.585-10.527-3.339a10.155,10.155,0,0,1-1.954-9.789,15.9,15.9,0,0,1,6.293-8.107c2.852-2,6.162-3.39,8.052-6.259a50.576,50.576,0,0,0,2.314-4.92c2.657-5.166,8.632-7.963,14.408-8.31s11.5,1.373,17,3.238,11.044,3.916,16.849,4.3c2.585.161,5.272,0,7.67.979,3.225,1.309,5.34,4.441,6.78,7.628a25.5,25.5,0,0,1,2.45,11.442c-.356,8.378-5.891,16.6-3.458,24.626.644,2.14,1.852,4.335,1.208,6.475-.941,3.123-4.971,3.835-8.23,3.983-.848-1.86-.394-4.013-.377-6.056s-.737-4.454-2.7-5c-3.933-1.1-6.645,6.234-10.51,4.912-2.945-1.013-2.182-5.509-3.895-8.107-1.352-2.06-4.064-2.636-6.166-3.924-4.479-2.75-4.344-7.149-6.424-11.311C634.228,94.949,629.622,96.237,625.621,98.814Z" transform="translate(-366.799 -62.956)" fill="#99607e"/>
      <path id="Tracé_842" data-name="Tracé 842" d="M511.7,515.4l-3.233,1.127s1.271,19.121-2.966,24.6,13.917,19.117,13.917,19.117S544.3,560.1,545,558.125s-1.271-35.428-1.271-35.428-13.358-5.2-12.235-13.5c0,0-4.077,19.54-10.12,18.7S508.473,522.007,511.7,515.4Z" transform="translate(-315.039 -318.277)" fill="#e8f5ff"/>
      <ellipse id="Ellipse_290" data-name="Ellipse 290" cx="8.531" cy="7.802" rx="8.531" ry="7.802" transform="translate(198.913 199.932)" opacity="0.1"/>
      <path id="Tracé_843" data-name="Tracé 843" d="M527.725,468.2s-1.7-51.735-16.451-40.208-14.9,25.312-12.09,29.385S511,481.837,511,481.837h0a10.311,10.311,0,0,0,15.256-6.78Z" transform="translate(-310.954 -270.519)" fill="#ffc1c7"/>
      <path id="Tracé_844" data-name="Tracé 844" d="M629.733,214.083a1.245,1.245,0,0,0-.381-.585c-.729-.665-2.3-.9-4.662-.695l.1,1.119c3.153-.271,3.776.356,3.856.462v.106l.1.14a4.729,4.729,0,0,1,.848,3.729c-.691,3.454-4.933,6.2-4.975,6.234l-.1.059-.064.1c-1.831,2.716-12.184,10.383-14.892,12.366l-.237-.271c-1.212,1.051-11.866,10.378-12.442,13.951-.373,2.242-2.9,3.11-3.814,3.352a23.948,23.948,0,0,1-5.734-6.026c-1.53-2.632,4.628-7.768,5.17-9.772l-.848-.869c-.089.322-8,7.713-5.8,11.489a25.157,25.157,0,0,0,6.111,6.48c-.36,3.272-2.6,22.481-6.047,27.033-4.28,5.657-7.878,34.169-7.48,44.124.352,8.844-1.958,25.549-9.671,32.724a12.362,12.362,0,0,1-10.2,3.39h-.186a30.1,30.1,0,0,1-20.7-6.78c-7.692-6.471-12.048-17.032-12.955-31.4h-.186l-.076-4.183a8.158,8.158,0,1,0-1.216.1h.093l.076,4.157-.373.025c.932,14.832,5.509,25.8,13.561,32.58a31.36,31.36,0,0,0,21.871,7.158,15.744,15.744,0,0,0,1.7.093,13.9,13.9,0,0,0,9.747-3.92c8.124-7.564,10.594-24.884,10.209-34.029-.424-10.548,3.352-38.034,7.141-43.039,3.712-4.912,5.963-24.049,6.357-27.757,1.343-.377,4.382-1.568,4.9-4.662.373-2.238,7.488-9.132,11.866-12.951l-.131-.153a164.881,164.881,0,0,0,13.315-10.628c1.127-1.081,2.246-2.161,3.416-3.191a10.935,10.935,0,0,0,3.666-5.564A5.784,5.784,0,0,0,629.733,214.083Z" transform="translate(-320.913 -147.446)" opacity="0.1"/>
      <path id="Tracé_845" data-name="Tracé 845" d="M686.83,288.065a25.934,25.934,0,0,1-6.513-6.78c-2.2-3.776,5.713-11.162,5.8-11.484l.848.869c-.538,2-6.7,7.141-5.166,9.768a24.631,24.631,0,0,0,6.03,6.251Z" transform="translate(-415.922 -180.33)" fill="#353146"/>
      <path id="Tracé_846" data-name="Tracé 846" d="M735.861,237.171l-.661-.911c.136-.1,13.446-9.726,15.544-12.84l.068-.093.1-.064c.042-.03,4.284-2.776,4.975-6.234a4.7,4.7,0,0,0-.848-3.725l-.1-.144v-.1c-.085-.11-.708-.733-3.861-.462l-.1-1.123c2.369-.2,3.933.03,4.661.695a1.271,1.271,0,0,1,.386.589,5.789,5.789,0,0,1,.958,4.5,10.874,10.874,0,0,1-3.666,5.564c-1.165,1.03-2.288,2.119-3.411,3.191C745.65,230.09,736.327,236.836,735.861,237.171Z" transform="translate(-447.768 -146.68)" fill="#e8f5ff"/>
      <rect id="Rectangle_735" data-name="Rectangle 735" width="1.123" height="6.827" transform="translate(201.882 171.458) rotate(-1.05)" fill="#e8f5ff"/>
      <ellipse id="Ellipse_291" data-name="Ellipse 291" cx="8.2" cy="8.2" rx="8.2" ry="8.2" transform="translate(193.591 156.071)" fill="#1078ad"/>
      <circle id="Ellipse_292" data-name="Ellipse 292" cx="6.81" cy="6.81" r="6.81" transform="translate(194.98 157.461)" fill="#e8f5ff"/>
      <path id="Tracé_847" data-name="Tracé 847" d="M569.787,395.948a15.734,15.734,0,0,1-1.7-.089,31.406,31.406,0,0,1-21.871-7.158c-8.052-6.78-12.62-17.739-13.561-32.584l1.7-.106c.907,14.366,5.263,24.931,12.959,31.4a30.216,30.216,0,0,0,20.693,6.78h.186a12.387,12.387,0,0,0,10.2-3.39c7.708-7.175,10.018-23.88,9.666-32.724-.424-9.963,3.174-38.475,7.458-44.128,3.751-4.954,6.077-27.283,6.1-27.507l.064-.636.627-.11c.038,0,3.7-.7,4.157-3.433.593-3.568,11.23-12.9,12.438-13.951l1.106,1.271c-4.395,3.814-11.51,10.713-11.866,12.955-.517,3.1-3.555,4.289-4.895,4.661-.424,3.712-2.657,22.846-6.357,27.757-3.789,5-7.564,32.491-7.141,43.039.365,9.145-2.081,26.469-10.2,34.029A13.9,13.9,0,0,1,569.787,395.948Z" transform="translate(-331.06 -179.471)" fill="#353146"/>
      <g id="Groupe_78" data-name="Groupe 78" transform="translate(228.245 30.192)" opacity="0.1">
        <path id="Tracé_848" data-name="Tracé 848" d="M783,150.585c.695-2.568,1.534-5.153,2.119-7.755C784.42,145.445,783.576,148.017,783,150.585Z" transform="translate(-703.557 -137.359)"/>
        <path id="Tracé_849" data-name="Tracé 849" d="M667.889,163.326c-.847-1.86-.394-4.013-.377-6.056s-.737-4.433-2.7-5c-3.933-1.1-6.645,6.238-10.51,4.912-2.966-1.013-2.182-5.509-3.895-8.107-1.352-2.06-4.06-2.636-6.162-3.924-4.484-2.75-4.348-7.149-6.424-11.311-2.182-4.365-6.78-3.077-10.781-.5-3.039,1.958-5.653,4.581-8.9,6.145a22.079,22.079,0,0,1-9.082,1.915c-3.793.089-7.92-.585-10.527-3.339a9.84,9.84,0,0,1-2.318-8.137c-.072.2-.136.4-.2.6a10.182,10.182,0,0,0,1.954,9.789c2.606,2.755,6.734,3.424,10.527,3.339a22.1,22.1,0,0,0,9.086-1.915c3.255-1.568,5.869-4.187,8.9-6.145,4-2.577,8.6-3.865,10.781.5,2.076,4.161,1.945,8.56,6.424,11.311,2.119,1.271,4.81,1.865,6.166,3.924,1.7,2.606.945,7.094,3.895,8.107,3.861,1.322,6.573-6.009,10.505-4.912,1.966.551,2.725,2.966,2.7,5s-.462,4.2.377,6.056c3.259-.148,7.289-.848,8.234-3.984a4.563,4.563,0,0,0,.178-1.386C674.364,162.585,670.822,163.2,667.889,163.326Z" transform="translate(-595.536 -129.92)"/>
      </g>
      <path id="Tracé_850" data-name="Tracé 850" d="M852,390.239l4.92,5.2s3.937,28.677,5.9,31.359,6.611,13.353,2.25,21.367c0,0-1.407,4.361-.564,6.187s-6.323,10.967-6.323,10.967-9.421,8.433-11.391,9.7-12.37,11.387-15.883,11.527-4.662,4.5-4.662,4.5l-19.824.7s-10.95-.572-13.332.975c0,0,1.271-16.731-10.963-27.7l15.6-5.623s5.907-2.543,7.734-5.2a9.548,9.548,0,0,1,4.662-3.513s4.357-3.094,4.5-4.78,5.327-3.755,5.327-3.755l-2.937-25.066,1.547-41.615s4.92-34.868,15.324-32.9S852,390.239,852,390.239Z" transform="translate(-474.81 -222.221)" opacity="0.1"/>
      <path id="Tracé_851" data-name="Tracé 851" d="M856,390.239l4.92,5.2s3.937,28.677,5.9,31.359,6.611,13.353,2.25,21.367c0,0-1.4,4.361-.559,6.187s-6.327,10.967-6.327,10.967-9.421,8.433-11.391,9.7-12.37,11.387-15.883,11.527-4.662,4.5-4.662,4.5l-19.824.7s-10.959-.572-13.332.975c0,0,1.271-16.731-10.963-27.7l15.6-5.623s5.907-2.543,7.734-5.2a9.548,9.548,0,0,1,4.662-3.513s4.357-3.094,4.5-4.78,5.327-3.755,5.327-3.755l-2.937-25.066,1.547-41.615s4.92-34.868,15.324-32.9S856,390.239,856,390.239Z" transform="translate(-477.115 -222.221)" fill="#e8f5ff"/>
      <path id="Tracé_852" data-name="Tracé 852" d="M907.84,552.352s14.481-3.814,18.278.848S907.84,552.352,907.84,552.352Z" transform="translate(-547.247 -342.296)" opacity="0.1"/>
      <path id="Tracé_853" data-name="Tracé 853" d="M899.88,569.44c4.92,3.445,20.1,3.585,20.1,3.585Z" transform="translate(-542.661 -352.989)" opacity="0.1"/>
      <path id="Tracé_854" data-name="Tracé 854" d="M917.46,610.08c.424.14,10.438,10.828,14.642,7.594S917.46,610.08,917.46,610.08Z" transform="translate(-552.79 -376.407)" opacity="0.1"/>
      <path id="Tracé_855" data-name="Tracé 855" d="M599.22,398.42s2.941,20.248,1.492,28.495,3.839,18.464,3.839,18.464Z" transform="translate(-369.413 -254.444)" opacity="0.1"/>
      <path id="Tracé_864" data-name="Tracé 864" d="M436.345,741.85s-5.717,11.624-2.623,10.874S436.345,741.85,436.345,741.85Z" transform="translate(-273.521 -452.336)" fill="none"/>
      <path id="Tracé_866" data-name="Tracé 866" d="M537.275,832.476Z" transform="translate(-333.45 -504.211)" fill="#ffccd0"/>
    </g>
  </g>
</svg>
